<?xml version="1.0" encoding="UTF-8" standalone="no"?>
<!-- Created with Inkscape (http://www.inkscape.org/) -->

<svg
   version="1.1"
   id="svg2"
   width="569.33331"
   height="165.33333"
   viewBox="0 0 569.33331 165.33333"
   sodipodi:docname="SPOZNAJ_logo_CMYK(1).eps"
   xmlns:inkscape="http://www.inkscape.org/namespaces/inkscape"
   xmlns:sodipodi="http://sodipodi.sourceforge.net/DTD/sodipodi-0.dtd"
   xmlns="http://www.w3.org/2000/svg"
   xmlns:svg="http://www.w3.org/2000/svg">
  <defs
     id="defs6" />
  <sodipodi:namedview
     id="namedview4"
     pagecolor="#ffffff"
     bordercolor="#000000"
     borderopacity="0.25"
     inkscape:showpageshadow="2"
     inkscape:pageopacity="0.0"
     inkscape:pagecheckerboard="0"
     inkscape:deskcolor="#d1d1d1" />
  <g
     id="g8"
     inkscape:groupmode="layer"
     inkscape:label="ink_ext_XXXXXX"
     transform="matrix(1.3333333,0,0,-1.3333333,0,165.33333)">
    <g
       id="g10"
       transform="scale(0.1)">
      <path
         d="m 276.434,226.227 c -63.661,0 -117.375,11.171 -161.149,33.519 -43.7694,22.34 -81.2694,54.02 -112.48812,95.035 L 98.2969,462.215 c 29.9961,-41.012 60.3011,-68.567 90.9061,-82.637 30.61,-14.074 62.145,-21.121 94.578,-21.121 16.532,0 31.387,2.148 44.539,6.43 13.157,4.277 23.575,10.566 31.223,18.824 7.641,8.254 11.473,18.215 11.473,29.84 0,9.176 -2.293,17.449 -6.883,24.793 -4.59,7.347 -10.871,13.773 -18.824,19.281 -7.957,5.508 -17.149,10.57 -27.551,15.148 -10.399,4.594 -21.891,8.43 -34.43,11.481 -12.547,3.059 -25.254,5.816 -38.109,8.266 -35.508,7.347 -66.266,16.992 -92.285,28.925 -26.02,11.938 -47.75,26.328 -65.1957,43.16 -17.4453,16.833 -30.457,36.122 -39.0313,57.848 -8.5547,21.727 -12.8554,46.375 -12.8554,73.926 0,39.172 11.1757,73.457 33.5234,102.836 22.3438,29.387 51.883,52.351 88.613,68.871 36.723,16.523 76.516,24.797 119.367,24.797 62.442,0 112.805,-9.957 151.055,-29.844 38.254,-19.891 68.715,-47.293 91.367,-82.187 l -97.332,-94.579 c -18.984,24.489 -40.562,42.852 -64.742,55.094 -24.176,12.246 -49.433,18.363 -75.75,18.363 -17.754,0 -33.367,-2.14 -46.836,-6.425 -13.469,-4.282 -23.726,-10.567 -30.758,-18.821 -7.039,-8.257 -10.562,-18.214 -10.562,-29.839 0,-9.797 2.914,-18.536 8.723,-26.176 5.812,-7.649 13.929,-14.235 24.335,-19.746 10.407,-5.508 22.344,-10.258 35.817,-14.231 13.453,-3.972 27.535,-7.191 42.23,-9.64 33.676,-6.735 64.137,-15.618 91.368,-26.629 27.242,-11.02 50.668,-24.649 70.246,-40.868 19.586,-16.214 34.746,-35.203 45.457,-56.925 10.707,-21.727 16.07,-46.688 16.07,-74.844 0,-44.066 -10.727,-81.734 -32.141,-112.941 C 474.48,291.43 444.777,267.543 406.828,251.023 368.883,234.496 325.414,226.227 276.434,226.227 Z m 323.511,9.183 v 642.781 h 278.231 c 40.406,0 76.519,-9.183 108.355,-27.55 31.839,-18.364 56.939,-43.317 75.299,-74.84 18.36,-31.52 27.55,-67.488 27.55,-107.895 0,-41.011 -9.19,-78.051 -27.55,-111.109 -18.37,-33.055 -43.47,-59.074 -75.299,-78.051 -31.836,-18.973 -67.957,-28.465 -108.355,-28.465 H 756.969 V 235.41 Z m 155.184,353.528 h 101.93 c 13.464,0 25.55,3.214 36.265,9.644 10.715,6.43 19.446,15.457 26.176,27.086 6.734,11.625 10.098,24.797 10.098,39.484 0,15.305 -3.364,28.469 -10.098,39.493 -6.73,11.015 -15.461,19.589 -26.176,25.707 -10.707,6.121 -22.808,9.179 -36.265,9.179 H 755.129 Z M 1855.54,235.41 v 104.68 l 297.1,394.828 -273.23,0.023 v 143.25 h 484.83 V 774.426 l -298.65,-400.899 308.75,-0.375 V 235.41 Z m 612.03,0 v 642.781 h 140.48 l 302.27,-409.871 -5.67,51.289 c -3.27,29.668 -5.04,60.758 -5.97,93.204 -0.91,32.445 -1.37,69.789 -1.37,112.031 v 153.347 h 152.43 V 235.41 h -142.33 l -299.12,402.465 3.44,-29.652 c 2.84,-24.434 4.29,-45.461 5.51,-62.899 1.22,-17.445 2.14,-33.672 2.76,-48.672 0.61,-15.004 0.91,-31.683 0.91,-50.043 V 235.41 Z m 636.39,0 254.35,642.781 h 133.15 L 3743.98,235.41 h -157.94 c -15.38,41.063 -31,82.047 -46.57,123.047 h -234.93 c -15.47,-41.008 -30.96,-81.996 -46.31,-123.047 z m 390.66,242.418 c -20.91,56.621 -41.17,113.481 -60.09,170.797 l -11.33,37.578 -12.54,-38.496 c -19.76,-56.859 -40.37,-113.441 -61.34,-169.879 z m 464.27,-251.601 c -23.26,0 -45.14,2.605 -65.64,7.804 -20.52,5.203 -39.34,12.86 -56.48,22.957 -17.14,10.102 -32.6,22.348 -46.37,36.731 -13.77,14.383 -25.26,30.457 -34.44,48.211 l 89.99,93.656 c 11.64,-16.523 22.66,-29.84 33.06,-39.938 10.4,-10.097 20.81,-17.3 31.22,-21.585 10.4,-4.278 21.43,-6.426 33.06,-6.426 14.69,0 27.7,3.523 39.02,10.558 11.33,7.039 20.05,16.692 26.17,28.93 6.12,12.238 9.19,26.012 9.19,41.316 v 292.926 h -118.46 v 136.824 h 370.06 V 741.367 h -99.18 V 431 c 0,-31.215 -5.36,-59.387 -16.06,-84.477 -10.72,-25.097 -25.57,-46.531 -44.54,-64.285 -18.97,-17.742 -41.32,-31.523 -67.03,-41.32 -25.71,-9.793 -53.57,-14.691 -83.57,-14.691"
         style="fill:#2969ae;fill-opacity:1;fill-rule:evenodd;stroke:none"
         id="path12" />
      <path
         d="m 1465.97,657.602 c 52.49,0 95.05,-42.567 95.05,-95.043 0,-52.485 -42.56,-95.051 -95.05,-95.051 -52.48,0 -95.05,42.566 -95.05,95.051 0,52.476 42.57,95.043 95.05,95.043 z m 0.18,244.816 c 53.43,0 103.97,-12.316 148.96,-34.273 v 89.027 h -0.14 c -1.22,81.128 -67.4,146.578 -148.82,146.578 -81.41,0 -147.59,-65.45 -148.81,-146.578 H 1183 c 1.23,155.328 127.55,280.898 283.15,280.898 155.3,0 281.38,-125.04 283.13,-279.925 h 0.1 v -207.43 c 35.99,-53.969 57,-118.797 57,-188.52 0,-187.882 -152.35,-340.226 -340.23,-340.226 -187.88,0 -340.22,152.344 -340.22,340.226 0,187.875 152.34,340.223 340.22,340.223 z m 0,-161.387 c 98.74,0 178.84,-80.097 178.84,-178.836 0,-98.742 -80.1,-178.843 -178.84,-178.843 -98.73,0 -178.84,80.101 -178.84,178.843 0,98.739 80.11,178.836 178.84,178.836"
         style="fill:#f47216;fill-opacity:1;fill-rule:evenodd;stroke:none"
         id="path14" />
      <path
         d="m 104.699,75.6406 c 0,-5.4258 -0.84,-10.2383 -2.547,-14.4179 C 100.473,57.0469 98,53.5352 94.7656,50.6797 91.5313,47.8008 87.5586,45.6367 82.8711,44.1328 78.1602,42.6563 72.6328,41.8906 66.2656,41.8906 H 58.2148 V 11.0742 c 0,-0.4844 -0.1757,-0.9414 -0.4804,-1.3242 C 57.4023,9.33984 56.8672,9.01172 56.1289,8.78125 55.3633,8.52734 54.3711,8.32422 53.1211,8.17188 51.8984,8.01953 50.2969,7.94141 48.3594,7.94141 c -1.8828,0 -3.4649,0.07812 -4.7383,0.23047 -1.2695,0.15234 -2.293,0.35546 -3.0273,0.60937 -0.7422,0.23047 -1.2774,0.55859 -1.5547,0.96875 -0.3047,0.3828 -0.4571,0.8398 -0.4571,1.3242 v 86.8789 c 0,2.3169 0.6094,4.0739 1.8321,5.2459 1.2226,1.172 2.8281,1.758 4.8125,1.758 h 22.7461 c 2.289,0 4.4804,-0.078 6.5468,-0.254 2.0625,-0.18 4.5313,-0.562 7.4102,-1.121 2.9023,-0.586 5.8047,-1.629 8.7617,-3.187 2.9805,-1.5278 5.5,-3.4887 7.5899,-5.8559 2.0897,-2.3438 3.6677,-5.1172 4.7617,-8.2774 1.098,-3.1601 1.656,-6.6992 1.656,-10.6211 z M 84.168,74.2148 c 0,3.3868 -0.5821,6.1641 -1.7813,8.3555 -1.1953,2.1914 -2.6719,3.8203 -4.4062,4.8633 -1.7305,1.043 -3.5664,1.6797 -5.4766,1.9609 -1.9336,0.2813 -3.8945,0.4102 -5.9297,0.4102 H 58.2148 V 57.0469 h 8.7891 c 3.1328,0 5.7578,0.4336 7.8711,1.2734 2.1133,0.8399 3.8438,2.0391 5.1953,3.543 1.3516,1.5273 2.3672,3.3359 3.0547,5.4492 0.6914,2.1133 1.043,4.4063 1.043,6.9023"
         style="fill:#2969ae;fill-opacity:1;fill-rule:nonzero;stroke:none"
         id="path16" />
      <path
         d="m 207.77,57.7852 c 0,-7.9961 -0.993,-15.1524 -2.981,-21.4688 -1.988,-6.3203 -4.941,-11.6914 -8.891,-16.0976 -3.921,-4.379 -8.785,-7.7422 -14.566,-10.0625 -5.809,-2.31646 -12.504,-3.46099 -20.121,-3.46099 -7.512,0 -14.059,0.96485 -19.664,2.92578 -5.602,1.96091 -10.262,4.96871 -13.981,8.99221 -3.746,4.0508 -6.546,9.1719 -8.406,15.3828 -1.859,6.2148 -2.801,13.5781 -2.801,22.082 0,7.8203 0.993,14.8516 3.004,21.0899 1.989,6.2383 4.942,11.539 8.867,15.9218 3.918,4.379 8.782,7.7382 14.59,10.0862 5.785,2.34 12.532,3.488 20.172,3.488 7.336,0 13.781,-0.969 19.383,-2.906 5.578,-1.934 10.266,-4.9142 14.012,-8.9377 3.769,-4.0508 6.593,-9.1211 8.504,-15.2812 1.937,-6.1407 2.879,-13.375 2.879,-21.7539 z m -20.582,-1.043 c 0,5.0937 -0.403,9.7031 -1.196,13.8555 -0.789,4.1523 -2.164,7.7148 -4.074,10.6718 -1.91,2.9532 -4.457,5.25 -7.641,6.8516 -3.183,1.6328 -7.156,2.4453 -11.945,2.4453 -4.812,0 -8.863,-0.918 -12.098,-2.7266 -3.211,-1.832 -5.836,-4.2539 -7.82,-7.2851 -1.984,-3.0274 -3.387,-6.5703 -4.226,-10.6211 -0.817,-4.0703 -1.223,-8.3516 -1.223,-12.8867 0,-5.2696 0.406,-10.0117 1.195,-14.211 0.789,-4.2031 2.141,-7.7968 4.024,-10.7734 1.886,-2.9805 4.433,-5.2734 7.617,-6.8281 3.183,-1.5781 7.183,-2.3672 12.019,-2.3672 4.817,0 8.84,0.918 12.075,2.6992 3.234,1.7852 5.859,4.2305 7.843,7.3125 1.989,3.0781 3.387,6.6719 4.203,10.7695 0.844,4.1016 1.247,8.4844 1.247,13.0938"
         style="fill:#2969ae;fill-opacity:1;fill-rule:nonzero;stroke:none"
         id="path18" />
      <path
         d="m 307.988,58.0938 c 0,-8.8399 -1.172,-16.4297 -3.488,-22.7227 -2.316,-6.2891 -5.633,-11.4336 -9.961,-15.4063 -4.328,-3.9726 -9.574,-6.9023 -15.766,-8.7656 C 272.559,9.33984 265.199,8.40234 256.641,8.40234 H 233.59 c -1.656,0 -3.031,0.48438 -4.149,1.44922 -1.121,0.96874 -1.683,2.54684 -1.683,4.73824 v 84.1758 c 0,2.1914 0.562,3.7694 1.683,4.7384 1.118,0.969 2.493,1.453 4.149,1.453 h 24.758 c 8.609,0 15.918,-1.019 21.902,-3.031 5.988,-2.0119 11.055,-4.9924 15.156,-8.9416 4.102,-3.9453 7.235,-8.836 9.371,-14.6719 2.141,-5.8047 3.211,-12.5547 3.211,-20.2187 z m -20.3,-0.6641 c 0,4.5859 -0.536,8.8125 -1.602,12.7617 -1.07,3.9219 -2.801,7.3359 -5.172,10.2109 -2.344,2.879 -5.375,5.1446 -9.094,6.75 -3.691,1.629 -8.558,2.4454 -14.593,2.4454 h -9.911 V 23.9102 h 10.219 c 5.371,0 9.906,0.7148 13.574,2.0898 3.692,1.4023 6.75,3.5156 9.219,6.3164 2.473,2.8008 4.305,6.3164 5.527,10.4922 1.223,4.1797 1.833,9.043 1.833,14.6211"
         style="fill:#2969ae;fill-opacity:1;fill-rule:nonzero;stroke:none"
         id="path20" />
      <path
         d="m 393.688,75.6406 c 0,-5.4258 -0.84,-10.2383 -2.547,-14.4179 -1.68,-4.1758 -4.153,-7.6875 -7.387,-10.543 -3.234,-2.8789 -7.207,-5.043 -11.895,-6.5469 -4.711,-1.4765 -10.238,-2.2422 -16.605,-2.2422 h -8.051 V 11.0742 c 0,-0.4844 -0.172,-0.9414 -0.48,-1.3242 -0.332,-0.41016 -0.868,-0.73828 -1.606,-0.96875 -0.765,-0.25391 -1.754,-0.45703 -3.008,-0.60937 -1.218,-0.15235 -2.824,-0.23047 -4.761,-0.23047 -1.883,0 -3.461,0.07812 -4.735,0.23047 -1.273,0.15234 -2.293,0.35546 -3.031,0.60937 -0.738,0.23047 -1.277,0.55859 -1.555,0.96875 -0.304,0.3828 -0.457,0.8398 -0.457,1.3242 v 86.8789 c 0,2.3169 0.614,4.0739 1.832,5.2459 1.223,1.172 2.828,1.758 4.813,1.758 h 22.746 c 2.293,0 4.484,-0.078 6.547,-0.254 2.062,-0.18 4.531,-0.562 7.41,-1.121 2.906,-0.586 5.809,-1.629 8.766,-3.187 2.976,-1.5278 5.496,-3.4887 7.586,-5.8559 2.089,-2.3438 3.668,-5.1172 4.761,-8.2774 1.098,-3.1601 1.657,-6.6992 1.657,-10.6211 z M 373.16,74.2148 c 0,3.3868 -0.586,6.1641 -1.785,8.3555 -1.195,2.1914 -2.672,3.8203 -4.402,4.8633 -1.735,1.043 -3.567,1.6797 -5.477,1.9609 -1.937,0.2813 -3.898,0.4102 -5.933,0.4102 h -8.36 V 57.0469 h 8.789 c 3.133,0 5.758,0.4336 7.871,1.2734 2.117,0.8399 3.844,2.0391 5.196,3.543 1.351,1.5273 2.367,3.3359 3.058,5.4492 0.688,2.1133 1.043,4.4063 1.043,6.9023"
         style="fill:#2969ae;fill-opacity:1;fill-rule:nonzero;stroke:none"
         id="path22" />
      <path
         d="m 499.23,57.7852 c 0,-7.9961 -0.992,-15.1524 -2.98,-21.4688 -1.984,-6.3203 -4.941,-11.6914 -8.887,-16.0976 -3.925,-4.379 -8.789,-7.7422 -14.57,-10.0625 -5.809,-2.31646 -12.504,-3.46099 -20.121,-3.46099 -7.512,0 -14.059,0.96485 -19.66,2.92578 -5.606,1.96091 -10.266,4.96871 -13.985,8.99221 -3.746,4.0508 -6.547,9.1719 -8.406,15.3828 -1.859,6.2148 -2.801,13.5781 -2.801,22.082 0,7.8203 0.993,14.8516 3.004,21.0899 1.989,6.2383 4.942,11.539 8.867,15.9218 3.918,4.379 8.782,7.7382 14.59,10.0862 5.785,2.34 12.535,3.488 20.172,3.488 7.336,0 13.781,-0.969 19.383,-2.906 5.578,-1.934 10.266,-4.9142 14.012,-8.9377 3.769,-4.0508 6.593,-9.1211 8.504,-15.2812 1.937,-6.1407 2.878,-13.375 2.878,-21.7539 z m -20.578,-1.043 c 0,5.0937 -0.406,9.7031 -1.199,13.8555 -0.789,4.1523 -2.164,7.7148 -4.074,10.6718 -1.91,2.9532 -4.457,5.25 -7.641,6.8516 -3.183,1.6328 -7.156,2.4453 -11.945,2.4453 -4.813,0 -8.863,-0.918 -12.098,-2.7266 -3.207,-1.832 -5.832,-4.2539 -7.82,-7.2851 -1.984,-3.0274 -3.387,-6.5703 -4.227,-10.6211 -0.816,-4.0703 -1.222,-8.3516 -1.222,-12.8867 0,-5.2696 0.406,-10.0117 1.195,-14.211 0.789,-4.2031 2.141,-7.7968 4.024,-10.7734 1.886,-2.9805 4.433,-5.2734 7.617,-6.8281 3.183,-1.5781 7.183,-2.3672 12.019,-2.3672 4.817,0 8.84,0.918 12.074,2.6992 3.235,1.7852 5.86,4.2305 7.844,7.3125 1.989,3.0781 3.387,6.6719 4.203,10.7695 0.844,4.1016 1.25,8.4844 1.25,13.0938"
         style="fill:#2969ae;fill-opacity:1;fill-rule:nonzero;stroke:none"
         id="path24" />
      <path
         d="m 590.867,10.9492 c 0,-0.5625 -0.105,-1.01951 -0.308,-1.40232 -0.204,-0.35547 -0.661,-0.66016 -1.426,-0.91797 -0.735,-0.25391 -1.832,-0.4336 -3.285,-0.53516 -1.426,-0.10156 -3.387,-0.15234 -5.883,-0.15234 -2.086,0 -3.77,0.05078 -4.992,0.15234 -1.25,0.10156 -2.243,0.30859 -2.953,0.5625 -0.715,0.28125 -1.223,0.63281 -1.532,1.04297 -0.304,0.43358 -0.558,0.94138 -0.761,1.52738 l -8.637,21.5742 c -1.043,2.4453 -2.059,4.6094 -3.055,6.4961 -1.019,1.8828 -2.113,3.4609 -3.336,4.7344 -1.222,1.2773 -2.621,2.2187 -4.203,2.8789 -1.601,0.6367 -3.437,0.9687 -5.527,0.9687 h -6.114 V 11.0742 c 0,-0.4844 -0.175,-0.9414 -0.48,-1.3242 C 538.043,9.33984 537.508,9.01172 536.77,8.78125 536.004,8.52734 535.012,8.32422 533.762,8.17188 532.539,8.01953 530.934,7.94141 529,7.94141 c -1.887,0 -3.465,0.07812 -4.738,0.23047 -1.274,0.15234 -2.293,0.35546 -3.028,0.60937 -0.742,0.23047 -1.277,0.55859 -1.554,0.96875 -0.309,0.3828 -0.461,0.8398 -0.461,1.3242 v 87.6914 c 0,2.1914 0.562,3.7694 1.683,4.7384 1.118,0.969 2.493,1.453 4.149,1.453 h 24.988 c 2.543,0 4.633,-0.051 6.262,-0.152 1.656,-0.102 3.133,-0.231 4.488,-0.36 3.867,-0.558 7.356,-1.5 10.492,-2.851 3.106,-1.348 5.731,-3.0784 7.895,-5.2463 2.164,-2.1641 3.82,-4.7344 4.965,-7.6914 1.144,-2.9571 1.707,-6.3672 1.707,-10.1875 0,-3.2344 -0.407,-6.1915 -1.223,-8.8399 -0.816,-2.6719 -2.035,-5.043 -3.617,-7.1328 -1.602,-2.0859 -3.563,-3.8945 -5.91,-5.4492 -2.313,-1.5274 -4.989,-2.7774 -7.969,-3.7188 1.449,-0.7148 2.801,-1.5508 4.074,-2.5468 1.25,-0.9922 2.445,-2.1875 3.567,-3.6172 1.121,-1.4258 2.187,-3.0313 3.183,-4.8399 0.992,-1.832 1.961,-3.8711 2.902,-6.1601 l 8.125,-19.0274 c 0.766,-1.8867 1.25,-3.2851 1.504,-4.1523 0.254,-0.8633 0.383,-1.5547 0.383,-2.0352 z m -25.316,65.5039 c 0,3.1875 -0.715,5.8594 -2.168,8.0508 -1.426,2.1875 -3.793,3.7422 -7.082,4.6367 -0.988,0.2539 -2.11,0.4571 -3.387,0.586 -1.273,0.1523 -3.027,0.2304 -5.269,0.2304 h -8.79 V 62.5742 h 9.989 c 2.797,0 5.219,0.3321 7.304,1.0196 2.09,0.6601 3.848,1.6054 5.223,2.8242 1.402,1.2226 2.445,2.6797 3.137,4.3593 0.711,1.7071 1.043,3.5899 1.043,5.6758"
         style="fill:#2969ae;fill-opacity:1;fill-rule:nonzero;stroke:none"
         id="path26" />
      <path
         d="m 684.488,15.7109 c 0.582,-1.7812 0.965,-3.207 1.121,-4.2539 0.125,-1.0429 -0.05,-1.83591 -0.609,-2.34372 -0.539,-0.53515 -1.508,-0.83984 -2.906,-0.96875 -1.403,-0.125 -3.313,-0.20312 -5.754,-0.20312 -2.524,0 -4.512,0.05078 -5.938,0.1289 -1.398,0.07422 -2.496,0.22657 -3.234,0.4336 -0.738,0.22656 -1.273,0.53515 -1.578,0.9414 -0.281,0.40625 -0.535,0.91799 -0.738,1.57809 l -6.497,19.3829 h -36.269 l -6.109,-18.875 c -0.207,-0.6836 -0.461,-1.2696 -0.793,-1.75786 -0.305,-0.45703 -0.84,-0.83594 -1.555,-1.11719 -0.711,-0.25391 -1.754,-0.46094 -3.055,-0.5625 -1.324,-0.10156 -3.054,-0.15234 -5.195,-0.15234 -2.293,0 -4.078,0.07812 -5.375,0.23047 -1.297,0.15234 -2.191,0.50781 -2.672,1.09375 -0.512,0.5625 -0.691,1.37497 -0.535,2.42187 0.152,1.043 0.535,2.4453 1.117,4.1758 l 29.777,85.6567 c 0.305,0.839 0.637,1.527 1.043,2.062 0.407,0.508 1.047,0.914 1.911,1.195 0.867,0.258 2.062,0.434 3.617,0.512 1.527,0.074 3.59,0.129 6.109,0.129 2.934,0 5.274,-0.055 7.031,-0.129 1.731,-0.078 3.086,-0.254 4.051,-0.512 0.965,-0.281 1.68,-0.687 2.09,-1.246 0.434,-0.535 0.789,-1.277 1.094,-2.242 z M 640.145,86.5195 H 640.07 L 626.418,45.4844 h 27.379 l -13.652,41.0351"
         style="fill:#2969ae;fill-opacity:1;fill-rule:nonzero;stroke:none"
         id="path28" />
      <path
         d="m 802.125,75.6406 c 0,-5.4258 -0.84,-10.2383 -2.543,-14.4179 -1.684,-4.1758 -4.152,-7.6875 -7.387,-10.543 -3.234,-2.8789 -7.211,-5.043 -11.894,-6.5469 -4.711,-1.4765 -10.242,-2.2422 -16.606,-2.2422 h -8.05 V 11.0742 c 0,-0.4844 -0.176,-0.9414 -0.485,-1.3242 -0.332,-0.41016 -0.867,-0.73828 -1.601,-0.96875 -0.766,-0.25391 -1.758,-0.45703 -3.008,-0.60937 -1.223,-0.15235 -2.828,-0.23047 -4.762,-0.23047 -1.887,0 -3.465,0.07812 -4.738,0.23047 -1.274,0.15234 -2.293,0.35546 -3.031,0.60937 -0.739,0.23047 -1.274,0.55859 -1.551,0.96875 -0.309,0.3828 -0.461,0.8398 -0.461,1.3242 v 86.8789 c 0,2.3169 0.613,4.0739 1.836,5.2459 1.219,1.172 2.824,1.758 4.812,1.758 h 22.742 c 2.293,0 4.485,-0.078 6.547,-0.254 2.063,-0.18 4.532,-0.562 7.414,-1.121 2.903,-0.586 5.805,-1.629 8.762,-3.187 2.977,-1.5278 5.5,-3.4887 7.586,-5.8559 2.09,-2.3438 3.668,-5.1172 4.762,-8.2774 1.097,-3.1601 1.656,-6.6992 1.656,-10.6211 z m -20.527,-1.4258 c 0,3.3868 -0.586,6.1641 -1.782,8.3555 -1.199,2.1914 -2.675,3.8203 -4.406,4.8633 -1.734,1.043 -3.566,1.6797 -5.476,1.9609 -1.938,0.2813 -3.899,0.4102 -5.934,0.4102 h -8.355 V 57.0469 h 8.785 c 3.133,0 5.758,0.4336 7.875,1.2734 2.113,0.8399 3.843,2.0391 5.195,3.543 1.348,1.5273 2.367,3.3359 3.055,5.4492 0.687,2.1133 1.043,4.4063 1.043,6.9023"
         style="fill:#2969ae;fill-opacity:1;fill-rule:nonzero;stroke:none"
         id="path30" />
      <path
         d="m 892.465,10.9492 c 0,-0.5625 -0.102,-1.01951 -0.309,-1.40232 -0.203,-0.35547 -0.66,-0.66016 -1.426,-0.91797 -0.734,-0.25391 -1.832,-0.4336 -3.285,-0.53516 -1.425,-0.10156 -3.386,-0.15234 -5.882,-0.15234 -2.086,0 -3.77,0.05078 -4.993,0.15234 -1.246,0.10156 -2.238,0.30859 -2.953,0.5625 -0.711,0.28125 -1.222,0.63281 -1.527,1.04297 -0.309,0.43358 -0.563,0.94138 -0.766,1.52738 l -8.636,21.5742 c -1.043,2.4453 -2.059,4.6094 -3.055,6.4961 -1.02,1.8828 -2.113,3.4609 -3.336,4.7344 -1.223,1.2773 -2.621,2.2187 -4.203,2.8789 -1.602,0.6367 -3.438,0.9687 -5.528,0.9687 h -6.113 V 11.0742 c 0,-0.4844 -0.176,-0.9414 -0.48,-1.3242 -0.332,-0.41016 -0.868,-0.73828 -1.606,-0.96875 -0.765,-0.25391 -1.758,-0.45703 -3.008,-0.60937 -1.222,-0.15235 -2.824,-0.23047 -4.761,-0.23047 -1.887,0 -3.465,0.07812 -4.739,0.23047 -1.273,0.15234 -2.293,0.35546 -3.027,0.60937 -0.742,0.23047 -1.277,0.55859 -1.555,0.96875 -0.304,0.3828 -0.461,0.8398 -0.461,1.3242 v 87.6914 c 0,2.1914 0.563,3.7694 1.684,4.7384 1.117,0.969 2.492,1.453 4.148,1.453 h 24.989 c 2.543,0 4.633,-0.051 6.265,-0.152 1.653,-0.102 3.129,-0.231 4.485,-0.36 3.867,-0.558 7.355,-1.5 10.492,-2.851 3.105,-1.348 5.73,-3.0784 7.894,-5.2463 2.165,-2.1641 3.821,-4.7344 4.965,-7.6914 1.149,-2.9571 1.707,-6.3672 1.707,-10.1875 0,-3.2344 -0.406,-6.1915 -1.222,-8.8399 -0.817,-2.6719 -2.035,-5.043 -3.618,-7.1328 -1.601,-2.0859 -3.562,-3.8945 -5.91,-5.4492 -2.312,-1.5274 -4.988,-2.7774 -7.968,-3.7188 1.449,-0.7148 2.8,-1.5508 4.074,-2.5468 1.25,-0.9922 2.445,-2.1875 3.566,-3.6172 1.121,-1.4258 2.188,-3.0313 3.184,-4.8399 0.992,-1.832 1.961,-3.8711 2.902,-6.1601 l 8.125,-19.0274 c 0.766,-1.8867 1.25,-3.2851 1.504,-4.1523 0.254,-0.8633 0.383,-1.5547 0.383,-2.0352 z m -25.317,65.5039 c 0,3.1875 -0.714,5.8594 -2.168,8.0508 -1.425,2.1875 -3.792,3.7422 -7.078,4.6367 -0.992,0.2539 -2.113,0.4571 -3.39,0.586 -1.27,0.1523 -3.028,0.2304 -5.27,0.2304 h -8.789 V 62.5742 h 9.988 c 2.801,0 5.219,0.3321 7.305,1.0196 2.09,0.6601 3.848,1.6054 5.223,2.8242 1.402,1.2226 2.445,2.6797 3.136,4.3593 0.711,1.7071 1.043,3.5899 1.043,5.6758"
         style="fill:#2969ae;fill-opacity:1;fill-rule:nonzero;stroke:none"
         id="path32" />
      <path
         d="m 930.051,11.0742 c 0,-0.4844 -0.18,-0.9414 -0.508,-1.3242 -0.305,-0.41016 -0.84,-0.73828 -1.605,-0.96875 -0.739,-0.25391 -1.731,-0.45703 -2.981,-0.60937 -1.246,-0.15235 -2.828,-0.23047 -4.762,-0.23047 -1.886,0 -3.465,0.07812 -4.738,0.23047 -1.273,0.15234 -2.293,0.35546 -3.027,0.60937 -0.742,0.23047 -1.278,0.55859 -1.606,0.96875 -0.332,0.3828 -0.484,0.8398 -0.484,1.3242 v 91.2068 c 0,0.485 0.152,0.946 0.484,1.328 0.328,0.403 0.864,0.735 1.656,0.965 0.762,0.254 1.754,0.461 3.004,0.614 1.246,0.152 2.825,0.23 4.711,0.23 1.934,0 3.516,-0.078 4.762,-0.23 1.25,-0.153 2.242,-0.36 2.981,-0.614 0.765,-0.23 1.3,-0.562 1.605,-0.965 0.328,-0.382 0.508,-0.843 0.508,-1.328 V 11.0742"
         style="fill:#2969ae;fill-opacity:1;fill-rule:nonzero;stroke:none"
         id="path34" />
      <path
         d="m 1067.91,44.3633 c 0,-5.9102 -0.86,-11.207 -2.62,-15.8945 -1.73,-4.6602 -4.31,-8.6329 -7.66,-11.8672 -3.39,-3.2344 -7.57,-5.6797 -12.56,-7.38676 -4.97,-1.67968 -10.7,-2.51953 -17.14,-2.51953 -6.09,0 -11.54,0.73828 -16.36,2.26563 -4.83,1.52736 -8.91,3.82036 -12.246,6.90236 -3.312,3.082 -5.859,6.9297 -7.64,11.539 -1.758,4.5821 -2.649,9.9844 -2.649,16.1485 v 58.7302 c 0,0.485 0.153,0.946 0.457,1.328 0.278,0.403 0.817,0.735 1.606,0.965 0.761,0.254 1.781,0.461 3.004,0.614 1.25,0.152 2.851,0.23 4.789,0.23 1.879,0 3.469,-0.078 4.679,-0.23 1.25,-0.153 2.25,-0.36 3.01,-0.614 0.74,-0.23 1.28,-0.562 1.61,-0.965 0.3,-0.382 0.48,-0.843 0.48,-1.328 V 45.2578 c 0,-3.8242 0.46,-7.1328 1.4,-9.9609 0.95,-2.8008 2.32,-5.1446 4.07,-6.9805 1.76,-1.832 3.88,-3.207 6.35,-4.125 2.47,-0.918 5.22,-1.3984 8.25,-1.3984 3.08,0 5.83,0.4804 8.28,1.4258 2.44,0.9414 4.51,2.3164 6.19,4.1484 1.7,1.8086 3,4.0508 3.92,6.6992 0.92,2.6758 1.37,5.707 1.37,9.0664 v 58.1482 c 0,0.485 0.16,0.946 0.46,1.328 0.29,0.403 0.82,0.735 1.56,0.965 0.76,0.254 1.75,0.461 3.03,0.614 1.27,0.152 2.85,0.23 4.74,0.23 1.88,0 3.44,-0.078 4.66,-0.23 1.22,-0.153 2.19,-0.36 2.95,-0.614 0.74,-0.23 1.28,-0.562 1.55,-0.965 0.31,-0.382 0.46,-0.843 0.46,-1.328 V 44.3633"
         style="fill:#2969ae;fill-opacity:1;fill-rule:nonzero;stroke:none"
         id="path36" />
      <path
         d="m 1140.42,11.8398 c -0.25,-0.8437 -0.58,-1.5273 -0.97,-2.06636 -0.4,-0.50781 -1.04,-0.91406 -1.93,-1.19531 -0.92,-0.25391 -2.12,-0.4336 -3.67,-0.50782 -1.55,-0.07812 -3.56,-0.1289 -6.04,-0.1289 -1.99,0 -3.69,0.02343 -5.12,0.05078 -1.42,0.02734 -2.62,0.07812 -3.61,0.17969 -0.99,0.10156 -1.81,0.2539 -2.42,0.45703 -0.64,0.20703 -1.15,0.43359 -1.58,0.73828 -0.41,0.30469 -0.74,0.66411 -0.97,1.09761 -0.23,0.4063 -0.43,0.9415 -0.63,1.6016 l -28.74,85.5781 c -0.58,1.7852 -0.94,3.2105 -1.06,4.2575 -0.13,1.043 0.12,1.832 0.73,2.34 0.61,0.535 1.68,0.844 3.19,0.969 1.47,0.129 3.56,0.207 6.26,0.207 2.3,0 4.08,-0.055 5.38,-0.156 1.27,-0.102 2.26,-0.278 2.97,-0.535 0.7,-0.254 1.18,-0.614 1.46,-1.118 0.28,-0.488 0.53,-1.125 0.79,-1.859 l 23.5,-74.4766 h 0.06 l 23.07,74.0936 c 0.21,0.863 0.43,1.528 0.74,2.063 0.31,0.508 0.82,0.941 1.53,1.222 0.71,0.305 1.76,0.508 3.11,0.61 1.32,0.101 3.18,0.156 5.5,0.156 2.29,0 4.07,-0.078 5.35,-0.23 1.27,-0.153 2.14,-0.512 2.62,-1.098 0.46,-0.559 0.61,-1.375 0.43,-2.418 -0.17,-1.047 -0.56,-2.4454 -1.14,-4.1798 l -28.81,-85.6524"
         style="fill:#2969ae;fill-opacity:1;fill-rule:nonzero;stroke:none"
         id="path38" />
      <path
         d="m 1263.08,15.7109 c 0.58,-1.7812 0.96,-3.207 1.12,-4.2539 0.12,-1.0429 -0.06,-1.83591 -0.61,-2.34372 -0.54,-0.53515 -1.51,-0.83984 -2.91,-0.96875 -1.4,-0.125 -3.31,-0.20312 -5.75,-0.20312 -2.53,0 -4.51,0.05078 -5.94,0.1289 -1.4,0.07422 -2.5,0.22657 -3.23,0.4336 -0.74,0.22656 -1.28,0.53515 -1.58,0.9414 -0.28,0.40625 -0.54,0.91799 -0.74,1.57809 l -6.49,19.3829 h -36.27 l -6.12,-18.875 c -0.2,-0.6836 -0.45,-1.2696 -0.79,-1.75786 -0.31,-0.45703 -0.84,-0.83594 -1.55,-1.11719 -0.72,-0.25391 -1.76,-0.46094 -3.06,-0.5625 -1.32,-0.10156 -3.05,-0.15234 -5.19,-0.15234 -2.3,0 -4.08,0.07812 -5.38,0.23047 -1.3,0.15234 -2.19,0.50781 -2.67,1.09375 -0.51,0.5625 -0.69,1.37497 -0.54,2.42187 0.16,1.043 0.54,2.4453 1.12,4.1758 l 29.78,85.6567 c 0.31,0.839 0.64,1.527 1.04,2.062 0.41,0.508 1.05,0.914 1.91,1.195 0.87,0.258 2.07,0.434 3.62,0.512 1.53,0.074 3.59,0.129 6.11,0.129 2.93,0 5.27,-0.055 7.03,-0.129 1.73,-0.078 3.08,-0.254 4.05,-0.512 0.97,-0.281 1.68,-0.687 2.09,-1.246 0.43,-0.535 0.79,-1.277 1.1,-2.242 z m -44.35,70.8086 h -0.07 L 1205,45.4844 h 27.39 l -13.66,41.0351"
         style="fill:#2969ae;fill-opacity:1;fill-rule:nonzero;stroke:none"
         id="path40" />
      <path
         d="m 1309.76,35.2695 c 0,-4.3789 -0.41,-8.3281 -1.23,-11.8437 -0.81,-3.4883 -2.21,-6.4922 -4.17,-8.9375 -1.97,-2.4727 -4.56,-4.3555 -7.75,-5.62892 -3.18,-1.30079 -7.1,-1.96094 -11.76,-1.96094 -1.51,0 -2.98,0.1289 -4.46,0.35547 -1.45,0.20703 -2.8,0.50781 -4.03,0.83984 -1.22,0.35938 -2.26,0.74219 -3.15,1.12109 -0.92,0.40625 -1.51,0.76563 -1.81,1.09766 -0.28,0.3047 -0.54,0.6602 -0.74,0.9922 -0.21,0.3555 -0.38,0.8164 -0.53,1.375 -0.13,0.5859 -0.23,1.3008 -0.29,2.1367 -0.05,0.8438 -0.07,1.9141 -0.07,3.2109 0,1.6797 0.02,3.1094 0.1,4.2813 0.08,1.168 0.2,2.0859 0.38,2.7734 0.18,0.6641 0.41,1.1485 0.74,1.4024 0.33,0.2773 0.74,0.4336 1.22,0.4336 0.46,0 1,-0.1797 1.58,-0.4844 0.59,-0.332 1.28,-0.6641 2.01,-1.0195 0.74,-0.3555 1.63,-0.6875 2.63,-1.0196 0.99,-0.3047 2.16,-0.4843 3.49,-0.4843 1.35,0 2.52,0.207 3.54,0.5625 1.04,0.3789 1.88,1.0195 2.54,1.9609 0.67,0.918 1.18,2.1367 1.53,3.6914 0.36,1.5273 0.54,3.5156 0.54,5.9609 V 102.41 c 0,0.508 0.15,0.942 0.48,1.324 0.31,0.356 0.84,0.688 1.56,0.918 0.73,0.254 1.73,0.434 3.03,0.559 1.29,0.129 2.87,0.207 4.76,0.207 1.91,0 3.46,-0.078 4.71,-0.207 1.25,-0.125 2.24,-0.305 3.03,-0.559 0.77,-0.23 1.3,-0.562 1.63,-0.918 0.34,-0.382 0.49,-0.816 0.49,-1.324 V 35.2695"
         style="fill:#2969ae;fill-opacity:1;fill-rule:nonzero;stroke:none"
         id="path42" />
      <path
         d="m 1413.23,15.7109 c 0.59,-1.7812 0.97,-3.207 1.13,-4.2539 0.12,-1.0429 -0.06,-1.83591 -0.61,-2.34372 -0.54,-0.53515 -1.51,-0.83984 -2.91,-0.96875 -1.4,-0.125 -3.31,-0.20312 -5.75,-0.20312 -2.53,0 -4.51,0.05078 -5.94,0.1289 -1.4,0.07422 -2.5,0.22657 -3.23,0.4336 -0.74,0.22656 -1.28,0.53515 -1.58,0.9414 -0.28,0.40625 -0.54,0.91799 -0.74,1.57809 l -6.5,19.3829 h -36.26 l -6.12,-18.875 c -0.2,-0.6836 -0.46,-1.2696 -0.79,-1.75786 -0.3,-0.45703 -0.84,-0.83594 -1.55,-1.11719 -0.72,-0.25391 -1.76,-0.46094 -3.06,-0.5625 -1.32,-0.10156 -3.05,-0.15234 -5.19,-0.15234 -2.3,0 -4.08,0.07812 -5.38,0.23047 -1.3,0.15234 -2.19,0.50781 -2.67,1.09375 -0.51,0.5625 -0.69,1.37497 -0.54,2.42187 0.16,1.043 0.54,2.4453 1.12,4.1758 l 29.78,85.6567 c 0.31,0.839 0.63,1.527 1.04,2.062 0.41,0.508 1.05,0.914 1.91,1.195 0.87,0.258 2.07,0.434 3.62,0.512 1.53,0.074 3.59,0.129 6.11,0.129 2.93,0 5.27,-0.055 7.03,-0.129 1.73,-0.078 3.08,-0.254 4.05,-0.512 0.97,-0.281 1.68,-0.687 2.09,-1.246 0.43,-0.535 0.79,-1.277 1.09,-2.242 z m -44.34,70.8086 h -0.07 l -13.66,-41.0351 h 27.39 l -13.66,41.0351"
         style="fill:#2969ae;fill-opacity:1;fill-rule:nonzero;stroke:none"
         id="path44" />
      <path
         d="m 1509.84,15.2773 c 0,-1.1445 -0.21,-2.164 -0.59,-3.082 -0.41,-0.8906 -0.94,-1.6289 -1.6,-2.21483 -0.69,-0.61328 -1.48,-1.04297 -2.4,-1.32422 -0.91,-0.25391 -1.86,-0.41016 -2.8,-0.41016 h -8.35 c -1.74,0 -3.26,0.17969 -4.51,0.53516 -1.27,0.33203 -2.45,0.96875 -3.52,1.88675 -1.07,0.914 -2.11,2.164 -3.11,3.7422 -0.99,1.5546 -2.11,3.5898 -3.33,6.0898 l -24.04,45.1328 c -1.38,2.6992 -2.8,5.5742 -4.26,8.6836 -1.42,3.1094 -2.72,6.1367 -3.87,9.0664 h -0.15 c 0.2,-3.5664 0.35,-7.1328 0.46,-10.6953 0.07,-3.5664 0.12,-7.2344 0.12,-11.0039 V 11.1484 c 0,-0.4804 -0.12,-0.9414 -0.4,-1.32027 -0.26,-0.41016 -0.74,-0.73829 -1.4,-1.01954 -0.69,-0.28125 -1.58,-0.48437 -2.73,-0.63671 -1.15,-0.15235 -2.62,-0.23047 -4.41,-0.23047 -1.73,0 -3.18,0.07812 -4.32,0.23047 -1.15,0.15234 -2.04,0.35546 -2.7,0.63671 -0.64,0.28125 -1.07,0.60938 -1.33,1.01954 -0.25,0.37887 -0.38,0.83987 -0.38,1.32027 v 86.8047 c 0,2.3169 0.69,4.0739 2.06,5.2459 1.35,1.172 3.03,1.758 5.02,1.758 h 10.54 c 1.89,0 3.47,-0.152 4.77,-0.484 1.3,-0.332 2.44,-0.864 3.46,-1.606 1.02,-0.738 1.99,-1.781 2.88,-3.1053 0.89,-1.2969 1.81,-2.9336 2.75,-4.8633 l 18.82,-35.3046 c 1.1,-2.1407 2.16,-4.25 3.24,-6.3165 1.06,-2.0625 2.11,-4.125 3.1,-6.1914 1,-2.0586 1.96,-4.0976 2.91,-6.0859 0.94,-1.9844 1.86,-3.9727 2.75,-5.9609 h 0.07 c -0.15,3.4922 -0.25,7.1093 -0.33,10.9023 -0.07,3.7695 -0.1,7.3867 -0.1,10.8008 v 45.3088 c 0,0.484 0.15,0.945 0.43,1.351 0.31,0.383 0.82,0.739 1.51,1.043 0.68,0.282 1.6,0.512 2.75,0.614 1.14,0.129 2.62,0.203 4.4,0.203 1.71,0 3.11,-0.074 4.26,-0.203 1.14,-0.102 2.03,-0.332 2.64,-0.614 0.64,-0.304 1.08,-0.66 1.31,-1.043 0.25,-0.406 0.38,-0.867 0.38,-1.351 V 15.2773"
         style="fill:#2969ae;fill-opacity:1;fill-rule:nonzero;stroke:none"
         id="path46" />
      <path
         d="m 1564.05,35.2695 c 0,-4.3789 -0.4,-8.3281 -1.22,-11.8437 -0.81,-3.4883 -2.21,-6.4922 -4.17,-8.9375 -1.96,-2.4727 -4.57,-4.3555 -7.75,-5.62892 -3.18,-1.30079 -7.11,-1.96094 -11.77,-1.96094 -1.5,0 -2.97,0.1289 -4.45,0.35547 -1.45,0.20703 -2.8,0.50781 -4.03,0.83984 -1.22,0.35938 -2.27,0.74219 -3.15,1.12109 -0.92,0.40625 -1.51,0.76563 -1.81,1.09766 -0.28,0.3047 -0.54,0.6602 -0.74,0.9922 -0.21,0.3555 -0.38,0.8164 -0.53,1.375 -0.13,0.5859 -0.23,1.3008 -0.29,2.1367 -0.05,0.8438 -0.07,1.9141 -0.07,3.2109 0,1.6797 0.02,3.1094 0.1,4.2813 0.08,1.168 0.21,2.0859 0.38,2.7734 0.18,0.6641 0.41,1.1485 0.74,1.4024 0.33,0.2773 0.74,0.4336 1.22,0.4336 0.46,0 1,-0.1797 1.58,-0.4844 0.59,-0.332 1.28,-0.6641 2.01,-1.0195 0.74,-0.3555 1.63,-0.6875 2.63,-1.0196 0.99,-0.3047 2.16,-0.4843 3.49,-0.4843 1.35,0 2.52,0.207 3.54,0.5625 1.04,0.3789 1.88,1.0195 2.54,1.9609 0.66,0.918 1.18,2.1367 1.53,3.6914 0.36,1.5273 0.54,3.5156 0.54,5.9609 V 102.41 c 0,0.508 0.15,0.942 0.48,1.324 0.31,0.356 0.84,0.688 1.56,0.918 0.73,0.254 1.73,0.434 3.02,0.559 1.3,0.129 2.88,0.207 4.77,0.207 1.91,0 3.46,-0.078 4.71,-0.207 1.25,-0.125 2.24,-0.305 3.03,-0.559 0.76,-0.23 1.3,-0.562 1.63,-0.918 0.33,-0.382 0.48,-0.816 0.48,-1.324 V 35.2695"
         style="fill:#2969ae;fill-opacity:1;fill-rule:nonzero;stroke:none"
         id="path48" />
      <path
         d="m 1667.23,44.3633 c 0,-5.9102 -0.87,-11.207 -2.62,-15.8945 -1.73,-4.6602 -4.31,-8.6329 -7.67,-11.8672 -3.39,-3.2344 -7.56,-5.6797 -12.56,-7.38676 -4.97,-1.67968 -10.69,-2.51953 -17.14,-2.51953 -6.08,0 -11.54,0.73828 -16.35,2.26563 -4.84,1.52736 -8.91,3.82036 -12.25,6.90236 -3.31,3.082 -5.86,6.9297 -7.64,11.539 -1.76,4.5821 -2.65,9.9844 -2.65,16.1485 v 58.7302 c 0,0.485 0.15,0.946 0.46,1.328 0.28,0.403 0.81,0.735 1.6,0.965 0.77,0.254 1.79,0.461 3.01,0.614 1.24,0.152 2.85,0.23 4.79,0.23 1.88,0 3.46,-0.078 4.68,-0.23 1.25,-0.153 2.24,-0.36 3.01,-0.614 0.74,-0.23 1.27,-0.562 1.6,-0.965 0.31,-0.382 0.48,-0.843 0.48,-1.328 V 45.2578 c 0,-3.8242 0.47,-7.1328 1.41,-9.9609 0.94,-2.8008 2.31,-5.1446 4.07,-6.9805 1.76,-1.832 3.87,-3.207 6.34,-4.125 2.47,-0.918 5.23,-1.3984 8.26,-1.3984 3.08,0 5.83,0.4804 8.28,1.4258 2.44,0.9414 4.5,2.3164 6.18,4.1484 1.71,1.8086 3.01,4.0508 3.93,6.6992 0.91,2.6758 1.37,5.707 1.37,9.0664 v 58.1482 c 0,0.485 0.15,0.946 0.46,1.328 0.28,0.403 0.81,0.735 1.55,0.965 0.77,0.254 1.76,0.461 3.03,0.614 1.28,0.152 2.86,0.23 4.74,0.23 1.88,0 3.44,-0.078 4.66,-0.23 1.22,-0.153 2.19,-0.36 2.95,-0.614 0.75,-0.23 1.28,-0.562 1.56,-0.965 0.3,-0.382 0.46,-0.843 0.46,-1.328 V 44.3633"
         style="fill:#2969ae;fill-opacity:1;fill-rule:nonzero;stroke:none"
         id="path50" />
      <path
         d="m 1805.83,15.2773 c 0,-1.1445 -0.2,-2.164 -0.58,-3.082 -0.41,-0.8906 -0.95,-1.6289 -1.61,-2.21483 -0.69,-0.61328 -1.48,-1.04297 -2.39,-1.32422 -0.92,-0.25391 -1.86,-0.41016 -2.8,-0.41016 h -8.36 c -1.73,0 -3.26,0.17969 -4.51,0.53516 -1.27,0.33203 -2.44,0.96875 -3.51,1.88675 -1.07,0.914 -2.12,2.164 -3.11,3.7422 -0.99,1.5546 -2.12,3.5898 -3.34,6.0898 l -24.04,45.1328 c -1.38,2.6992 -2.8,5.5742 -4.25,8.6836 -1.43,3.1094 -2.73,6.1367 -3.87,9.0664 h -0.16 c 0.21,-3.5664 0.36,-7.1328 0.46,-10.6953 0.08,-3.5664 0.13,-7.2344 0.13,-11.0039 V 11.1484 c 0,-0.4804 -0.13,-0.9414 -0.41,-1.32027 -0.25,-0.41016 -0.74,-0.73829 -1.4,-1.01954 -0.69,-0.28125 -1.58,-0.48437 -2.73,-0.63671 -1.14,-0.15235 -2.62,-0.23047 -4.4,-0.23047 -1.74,0 -3.18,0.07812 -4.33,0.23047 -1.15,0.15234 -2.04,0.35546 -2.7,0.63671 -0.64,0.28125 -1.07,0.60938 -1.33,1.01954 -0.25,0.37887 -0.38,0.83987 -0.38,1.32027 v 86.8047 c 0,2.3169 0.69,4.0739 2.07,5.2459 1.35,1.172 3.02,1.758 5.01,1.758 h 10.55 c 1.88,0 3.46,-0.152 4.76,-0.484 1.3,-0.332 2.44,-0.864 3.46,-1.606 1.02,-0.738 1.99,-1.781 2.88,-3.1053 0.9,-1.2969 1.81,-2.9336 2.76,-4.8633 l 18.82,-35.3046 c 1.09,-2.1407 2.16,-4.25 3.23,-6.3165 1.07,-2.0625 2.11,-4.125 3.11,-6.1914 0.99,-2.0586 1.96,-4.0976 2.9,-6.0859 0.94,-1.9844 1.86,-3.9727 2.75,-5.9609 h 0.08 c -0.16,3.4922 -0.26,7.1093 -0.33,10.9023 -0.08,3.7695 -0.1,7.3867 -0.1,10.8008 v 45.3088 c 0,0.484 0.15,0.945 0.43,1.351 0.3,0.383 0.81,0.739 1.5,1.043 0.69,0.282 1.61,0.512 2.75,0.614 1.14,0.129 2.62,0.203 4.41,0.203 1.7,0 3.11,-0.074 4.25,-0.203 1.14,-0.102 2.04,-0.332 2.65,-0.614 0.64,-0.304 1.07,-0.66 1.3,-1.043 0.25,-0.406 0.38,-0.867 0.38,-1.351 V 15.2773"
         style="fill:#2969ae;fill-opacity:1;fill-rule:nonzero;stroke:none"
         id="path52" />
      <path
         d="m 1909.46,15.7109 c 0.58,-1.7812 0.97,-3.207 1.12,-4.2539 0.13,-1.0429 -0.05,-1.83591 -0.61,-2.34372 -0.54,-0.53515 -1.51,-0.83984 -2.9,-0.96875 -1.41,-0.125 -3.32,-0.20312 -5.76,-0.20312 -2.52,0 -4.51,0.05078 -5.93,0.1289 -1.4,0.07422 -2.5,0.22657 -3.24,0.4336 -0.74,0.22656 -1.27,0.53515 -1.58,0.9414 -0.28,0.40625 -0.53,0.91799 -0.74,1.57809 l -6.49,19.3829 h -36.27 l -6.11,-18.875 c -0.21,-0.6836 -0.46,-1.2696 -0.79,-1.75786 -0.31,-0.45703 -0.84,-0.83594 -1.56,-1.11719 -0.71,-0.25391 -1.76,-0.46094 -3.05,-0.5625 -1.33,-0.10156 -3.06,-0.15234 -5.2,-0.15234 -2.29,0 -4.08,0.07812 -5.37,0.23047 -1.3,0.15234 -2.19,0.50781 -2.68,1.09375 -0.51,0.5625 -0.69,1.37497 -0.53,2.42187 0.15,1.043 0.53,2.4453 1.12,4.1758 l 29.77,85.6567 c 0.31,0.839 0.64,1.527 1.05,2.062 0.4,0.508 1.04,0.914 1.91,1.195 0.86,0.258 2.06,0.434 3.61,0.512 1.53,0.074 3.59,0.129 6.11,0.129 2.94,0 5.28,-0.055 7.04,-0.129 1.73,-0.078 3.08,-0.254 4.05,-0.512 0.96,-0.281 1.68,-0.687 2.09,-1.246 0.43,-0.535 0.78,-1.277 1.09,-2.242 z m -44.34,70.8086 h -0.08 l -13.65,-41.0351 h 27.38 l -13.65,41.0351"
         style="fill:#2969ae;fill-opacity:1;fill-rule:nonzero;stroke:none"
         id="path54" />
      <path
         d="m 1993.22,23.0195 c 0,-1.25 -0.02,-2.2929 -0.1,-3.1601 -0.07,-0.8633 -0.2,-1.6289 -0.33,-2.2383 -0.15,-0.6367 -0.36,-1.1719 -0.61,-1.6055 -0.25,-0.457 -0.64,-0.9687 -1.2,-1.5273 -0.53,-0.586 -1.6,-1.3008 -3.16,-2.2149 -1.57,-0.8945 -3.48,-1.7578 -5.75,-2.57418 -2.27,-0.8125 -4.84,-1.50391 -7.77,-2.03906 -2.9,-0.5586 -6.03,-0.83985 -9.42,-0.83985 -6.63,0 -12.58,1.04297 -17.91,3.08203 -5.32,2.03906 -9.85,5.07036 -13.58,9.12106 -3.74,4.0704 -6.59,9.1172 -8.58,15.2032 -1.99,6.0625 -3,13.1172 -3,21.1914 0,8.2031 1.09,15.4883 3.28,21.8515 2.19,6.3672 5.25,11.7188 9.2,16.0469 3.92,4.3281 8.63,7.6176 14.13,9.8596 5.51,2.242 11.54,3.359 18.16,3.359 2.7,0 5.28,-0.23 7.77,-0.687 2.5,-0.43 4.79,-1.02 6.9,-1.758 2.12,-0.711 4.03,-1.555 5.71,-2.496 1.68,-0.942 2.88,-1.7581 3.54,-2.4182 0.69,-0.6602 1.14,-1.2227 1.38,-1.6836 0.25,-0.457 0.46,-1.0156 0.6,-1.707 0.16,-0.711 0.26,-1.5274 0.34,-2.4688 0.07,-0.9414 0.1,-2.1133 0.1,-3.5117 0,-1.4805 -0.05,-2.7539 -0.13,-3.7969 -0.1,-1.0469 -0.28,-1.8867 -0.53,-2.5469 -0.26,-0.6367 -0.54,-1.1211 -0.9,-1.4023 -0.35,-0.3047 -0.73,-0.4609 -1.19,-0.4609 -0.74,0 -1.68,0.4375 -2.83,1.3046 -1.14,0.8633 -2.62,1.8594 -4.46,2.9258 -1.81,1.0703 -3.97,2.0391 -6.47,2.9024 -2.52,0.8672 -5.52,1.3008 -9.01,1.3008 -3.82,0 -7.24,-0.7891 -10.24,-2.3438 -3.03,-1.5781 -5.58,-3.8203 -7.7,-6.7227 -2.1,-2.9062 -3.71,-6.4218 -4.81,-10.5468 -1.09,-4.1524 -1.65,-8.7852 -1.65,-13.9571 0,-5.6796 0.59,-10.5937 1.75,-14.7461 1.18,-4.1523 2.86,-7.5664 5.02,-10.2617 2.17,-2.6758 4.77,-4.6914 7.82,-6.0117 3.06,-1.3008 6.52,-1.9648 10.34,-1.9648 3.49,0 6.5,0.4101 9.02,1.2265 2.55,0.8125 4.74,1.7305 6.55,2.7227 1.8,0.9922 3.31,1.8867 4.48,2.6992 1.17,0.7891 2.06,1.1719 2.72,1.1719 0.49,0 0.89,-0.0742 1.18,-0.2774 0.3,-0.207 0.55,-0.6132 0.76,-1.1992 0.2,-0.6094 0.33,-1.4258 0.43,-2.4961 0.1,-1.0664 0.15,-2.4961 0.15,-4.3047 z m -30.35,88.8125 c -1.61,0 -2.94,0.027 -4.03,0.055 -1.09,0.051 -2.04,0.203 -2.8,0.429 -0.79,0.204 -1.45,0.536 -2.01,0.969 -0.59,0.41 -1.2,0.942 -1.84,1.606 l -14.77,15.968 c -0.66,0.739 -1.04,1.352 -1.17,1.809 -0.13,0.484 0.02,0.84 0.46,1.094 0.41,0.258 1.17,0.41 2.24,0.511 1.07,0.102 2.44,0.153 4.12,0.153 2.04,0 3.72,-0.024 5.02,-0.102 1.28,-0.078 2.32,-0.203 3.08,-0.383 0.79,-0.179 1.38,-0.406 1.81,-0.714 0.41,-0.282 0.82,-0.661 1.23,-1.118 l 8.81,-10.214 9.16,10.085 c 0.41,0.485 0.82,0.891 1.23,1.223 0.43,0.332 1.02,0.559 1.8,0.738 0.77,0.18 1.76,0.305 3.01,0.383 1.25,0.078 2.93,0.102 5.02,0.102 1.68,0 3.03,-0.051 4.02,-0.18 1,-0.125 1.71,-0.332 2.12,-0.609 0.43,-0.258 0.58,-0.641 0.46,-1.094 -0.13,-0.488 -0.46,-1.047 -1.02,-1.684 l -14.55,-15.968 c -0.56,-0.664 -1.14,-1.172 -1.78,-1.578 -0.66,-0.383 -1.42,-0.715 -2.29,-0.922 -0.87,-0.227 -1.89,-0.379 -3.06,-0.453 -1.17,-0.079 -2.59,-0.106 -4.27,-0.106"
         style="fill:#2969ae;fill-opacity:1;fill-rule:nonzero;stroke:none"
         id="path56" />
      <path
         d="m 2068.05,16.0938 c 0,-1.4532 -0.05,-2.6524 -0.18,-3.6172 -0.12,-0.9688 -0.3,-1.7578 -0.56,-2.3711 -0.26,-0.58597 -0.56,-1.01566 -0.94,-1.29691 -0.36,-0.28125 -0.79,-0.40625 -1.23,-0.40625 h -48.49 c -1.65,0 -3.03,0.48438 -4.15,1.44922 -1.12,0.96874 -1.68,2.54684 -1.68,4.73824 v 84.1758 c 0,2.1914 0.56,3.7694 1.68,4.7384 1.12,0.969 2.5,1.453 4.15,1.453 h 48.19 c 0.46,0 0.84,-0.129 1.2,-0.383 0.35,-0.23 0.63,-0.664 0.89,-1.297 0.25,-0.613 0.43,-1.425 0.56,-2.394 0.13,-0.9689 0.2,-2.1955 0.2,-3.6955 0,-1.375 -0.07,-2.5703 -0.2,-3.5391 -0.13,-0.9687 -0.31,-1.7578 -0.56,-2.3437 -0.26,-0.6133 -0.54,-1.0469 -0.89,-1.3008 -0.36,-0.2773 -0.74,-0.4062 -1.2,-0.4062 h -34.46 v -23.586 h 29.16 c 0.46,0 0.87,-0.1484 1.25,-0.4062 0.36,-0.2813 0.66,-0.7149 0.92,-1.2735 0.25,-0.5859 0.43,-1.3515 0.56,-2.3164 0.12,-0.9687 0.18,-2.1406 0.18,-3.5429 0,-1.4493 -0.06,-2.6485 -0.18,-3.5899 -0.13,-0.9453 -0.31,-1.707 -0.56,-2.2695 -0.26,-0.582 -0.56,-0.9883 -0.92,-1.2188 -0.38,-0.2578 -0.79,-0.3828 -1.25,-0.3828 h -29.16 V 23.7852 h 34.76 c 0.44,0 0.87,-0.1524 1.23,-0.4336 0.38,-0.2578 0.68,-0.6875 0.94,-1.3008 0.26,-0.586 0.44,-1.375 0.56,-2.3438 0.13,-0.9648 0.18,-2.1875 0.18,-3.6132"
         style="fill:#2969ae;fill-opacity:1;fill-rule:nonzero;stroke:none"
         id="path58" />
      <path
         d="m 2141.91,16.6016 c 0,-1.4766 -0.05,-2.75 -0.18,-3.7696 -0.13,-1.0195 -0.31,-1.8593 -0.56,-2.5195 -0.26,-0.69141 -0.56,-1.17187 -0.94,-1.45312 -0.36,-0.30469 -0.82,-0.45704 -1.3,-0.45704 h -44.25 c -1.65,0 -3.02,0.48438 -4.14,1.44922 -1.13,0.96874 -1.68,2.54684 -1.68,4.73824 v 87.6912 c 0,0.485 0.15,0.946 0.48,1.328 0.33,0.403 0.86,0.735 1.6,0.965 0.74,0.254 1.76,0.461 3.03,0.614 1.28,0.152 2.85,0.23 4.74,0.23 1.93,0 3.52,-0.078 4.76,-0.23 1.25,-0.153 2.24,-0.36 2.98,-0.614 0.77,-0.23 1.3,-0.562 1.61,-0.965 0.33,-0.382 0.51,-0.843 0.51,-1.328 V 24.6016 h 30.36 c 0.48,0 0.94,-0.1524 1.3,-0.4102 0.38,-0.2812 0.68,-0.7383 0.94,-1.3476 0.25,-0.6407 0.43,-1.4532 0.56,-2.4727 0.13,-1.0195 0.18,-2.2695 0.18,-3.7695"
         style="fill:#2969ae;fill-opacity:1;fill-rule:nonzero;stroke:none"
         id="path60" />
      <path
         d="m 2278.34,57.7852 c 0,-7.9961 -0.99,-15.1524 -2.98,-21.4688 -1.98,-6.3203 -4.94,-11.6914 -8.89,-16.0976 -3.92,-4.379 -8.78,-7.7422 -14.56,-10.0625 -5.81,-2.31646 -12.51,-3.46099 -20.13,-3.46099 -7.51,0 -14.05,0.96485 -19.66,2.92578 -5.6,1.96091 -10.26,4.96871 -13.98,8.99221 -3.75,4.0508 -6.55,9.1719 -8.41,15.3828 -1.85,6.2148 -2.8,13.5781 -2.8,22.082 0,7.8203 1,14.8516 3.01,21.0899 1.99,6.2383 4.94,11.539 8.86,15.9218 3.92,4.379 8.79,7.7382 14.59,10.0862 5.79,2.34 12.54,3.488 20.18,3.488 7.33,0 13.77,-0.969 19.38,-2.906 5.58,-1.934 10.26,-4.9142 14.01,-8.9377 3.77,-4.0508 6.59,-9.1211 8.5,-15.2812 1.94,-6.1407 2.88,-13.375 2.88,-21.7539 z m -20.58,-1.043 c 0,5.0937 -0.4,9.7031 -1.19,13.8555 -0.8,4.1523 -2.17,7.7148 -4.08,10.6718 -1.91,2.9532 -4.45,5.25 -7.64,6.8516 -3.18,1.6328 -7.16,2.4453 -11.94,2.4453 -4.82,0 -8.87,-0.918 -12.1,-2.7266 -3.21,-1.832 -5.84,-4.2539 -7.83,-7.2851 -1.98,-3.0274 -3.38,-6.5703 -4.22,-10.6211 -0.82,-4.0703 -1.22,-8.3516 -1.22,-12.8867 0,-5.2696 0.4,-10.0117 1.19,-14.211 0.79,-4.2031 2.15,-7.7968 4.03,-10.7734 1.88,-2.9805 4.43,-5.2734 7.62,-6.8281 3.17,-1.5781 7.17,-2.3672 12.01,-2.3672 4.82,0 8.84,0.918 12.08,2.6992 3.23,1.7852 5.86,4.2305 7.84,7.3125 1.99,3.0781 3.39,6.6719 4.21,10.7695 0.84,4.1016 1.24,8.4844 1.24,13.0938"
         style="fill:#2969ae;fill-opacity:1;fill-rule:nonzero;stroke:none"
         id="path62" />
      <path
         d="m 2378.56,58.0938 c 0,-8.8399 -1.17,-16.4297 -3.49,-22.7227 -2.32,-6.2891 -5.63,-11.4336 -9.96,-15.4063 -4.32,-3.9726 -9.57,-6.9023 -15.76,-8.7656 -6.22,-1.85936 -13.58,-2.79686 -22.14,-2.79686 h -23.05 c -1.65,0 -3.03,0.48438 -4.15,1.44922 -1.12,0.96874 -1.68,2.54684 -1.68,4.73824 v 84.1758 c 0,2.1914 0.56,3.7694 1.68,4.7384 1.12,0.969 2.5,1.453 4.15,1.453 h 24.76 c 8.61,0 15.92,-1.019 21.9,-3.031 5.99,-2.0119 11.06,-4.9924 15.16,-8.9416 4.1,-3.9453 7.23,-8.836 9.37,-14.6719 2.14,-5.8047 3.21,-12.5547 3.21,-20.2187 z m -20.3,-0.6641 c 0,4.5859 -0.53,8.8125 -1.6,12.7617 -1.07,3.9219 -2.8,7.3359 -5.17,10.2109 -2.35,2.879 -5.38,5.1446 -9.1,6.75 -3.69,1.629 -8.55,2.4454 -14.59,2.4454 h -9.91 V 23.9102 h 10.22 c 5.37,0 9.91,0.7148 13.57,2.0898 3.69,1.4023 6.75,3.5156 9.22,6.3164 2.47,2.8008 4.31,6.3164 5.53,10.4922 1.22,4.1797 1.83,9.043 1.83,14.6211"
         style="fill:#2969ae;fill-opacity:1;fill-rule:nonzero;stroke:none"
         id="path64" />
      <path
         d="m 2464.26,75.6406 c 0,-5.4258 -0.84,-10.2383 -2.55,-14.4179 -1.67,-4.1758 -4.15,-7.6875 -7.38,-10.543 -3.24,-2.8789 -7.21,-5.043 -11.9,-6.5469 -4.71,-1.4765 -10.23,-2.2422 -16.6,-2.2422 h -8.05 V 11.0742 c 0,-0.4844 -0.18,-0.9414 -0.48,-1.3242 -0.34,-0.41016 -0.87,-0.73828 -1.61,-0.96875 -0.76,-0.25391 -1.76,-0.45703 -3.01,-0.60937 -1.22,-0.15235 -2.82,-0.23047 -4.76,-0.23047 -1.88,0 -3.46,0.07812 -4.74,0.23047 -1.27,0.15234 -2.29,0.35546 -3.02,0.60937 -0.75,0.23047 -1.28,0.55859 -1.56,0.96875 -0.3,0.3828 -0.46,0.8398 -0.46,1.3242 v 86.8789 c 0,2.3169 0.61,4.0739 1.84,5.2459 1.22,1.172 2.82,1.758 4.81,1.758 h 22.75 c 2.28,0 4.48,-0.078 6.54,-0.254 2.06,-0.18 4.53,-0.562 7.41,-1.121 2.9,-0.586 5.81,-1.629 8.76,-3.187 2.98,-1.5278 5.5,-3.4887 7.59,-5.8559 2.09,-2.3438 3.67,-5.1172 4.77,-8.2774 1.09,-3.1601 1.65,-6.6992 1.65,-10.6211 z m -20.53,-1.4258 c 0,3.3868 -0.58,6.1641 -1.78,8.3555 -1.2,2.1914 -2.67,3.8203 -4.41,4.8633 -1.73,1.043 -3.56,1.6797 -5.47,1.9609 -1.94,0.2813 -3.9,0.4102 -5.94,0.4102 h -8.35 V 57.0469 h 8.79 c 3.13,0 5.75,0.4336 7.87,1.2734 2.11,0.8399 3.84,2.0391 5.19,3.543 1.35,1.5273 2.37,3.3359 3.06,5.4492 0.69,2.1133 1.04,4.4063 1.04,6.9023"
         style="fill:#2969ae;fill-opacity:1;fill-rule:nonzero;stroke:none"
         id="path66" />
      <path
         d="m 2554.6,10.9492 c 0,-0.5625 -0.1,-1.01951 -0.31,-1.40232 -0.2,-0.35547 -0.66,-0.66016 -1.42,-0.91797 -0.74,-0.25391 -1.84,-0.4336 -3.29,-0.53516 -1.42,-0.10156 -3.39,-0.15234 -5.88,-0.15234 -2.09,0 -3.77,0.05078 -5,0.15234 -1.24,0.10156 -2.24,0.30859 -2.95,0.5625 -0.71,0.28125 -1.22,0.63281 -1.53,1.04297 -0.3,0.43358 -0.56,0.94138 -0.76,1.52738 l -8.64,21.5742 c -1.04,2.4453 -2.06,4.6094 -3.05,6.4961 -1.02,1.8828 -2.12,3.4609 -3.34,4.7344 -1.22,1.2773 -2.62,2.2187 -4.2,2.8789 -1.6,0.6367 -3.44,0.9687 -5.53,0.9687 h -6.11 V 11.0742 c 0,-0.4844 -0.18,-0.9414 -0.48,-1.3242 -0.34,-0.41016 -0.87,-0.73828 -1.61,-0.96875 -0.77,-0.25391 -1.76,-0.45703 -3.01,-0.60937 -1.22,-0.15235 -2.82,-0.23047 -4.76,-0.23047 -1.88,0 -3.46,0.07812 -4.73,0.23047 -1.28,0.15234 -2.3,0.35546 -3.04,0.60937 -0.73,0.23047 -1.27,0.55859 -1.55,0.96875 -0.3,0.3828 -0.46,0.8398 -0.46,1.3242 v 87.6914 c 0,2.1914 0.56,3.7694 1.68,4.7384 1.12,0.969 2.5,1.453 4.15,1.453 h 24.99 c 2.55,0 4.64,-0.051 6.27,-0.152 1.65,-0.102 3.13,-0.231 4.48,-0.36 3.87,-0.558 7.36,-1.5 10.49,-2.851 3.11,-1.348 5.73,-3.0784 7.9,-5.2463 2.16,-2.1641 3.82,-4.7344 4.97,-7.6914 1.14,-2.9571 1.7,-6.3672 1.7,-10.1875 0,-3.2344 -0.41,-6.1915 -1.22,-8.8399 -0.82,-2.6719 -2.04,-5.043 -3.62,-7.1328 -1.6,-2.0859 -3.56,-3.8945 -5.91,-5.4492 -2.31,-1.5274 -4.99,-2.7774 -7.97,-3.7188 1.45,-0.7148 2.8,-1.5508 4.08,-2.5468 1.24,-0.9922 2.44,-2.1875 3.56,-3.6172 1.12,-1.4258 2.19,-3.0313 3.19,-4.8399 0.99,-1.832 1.96,-3.8711 2.9,-6.1601 l 8.12,-19.0274 c 0.77,-1.8867 1.25,-3.2851 1.5,-4.1523 0.26,-0.8633 0.39,-1.5547 0.39,-2.0352 z m -25.32,65.5039 c 0,3.1875 -0.71,5.8594 -2.16,8.0508 -1.43,2.1875 -3.8,3.7422 -7.08,4.6367 -1,0.2539 -2.12,0.4571 -3.39,0.586 -1.27,0.1523 -3.03,0.2304 -5.27,0.2304 h -8.79 V 62.5742 h 9.98 c 2.81,0 5.23,0.3321 7.31,1.0196 2.09,0.6601 3.85,1.6054 5.22,2.8242 1.41,1.2226 2.45,2.6797 3.14,4.3593 0.71,1.7071 1.04,3.5899 1.04,5.6758"
         style="fill:#2969ae;fill-opacity:1;fill-rule:nonzero;stroke:none"
         id="path68" />
      <path
         d="m 2636.73,96.9063 c 0,-1.4493 -0.07,-2.6719 -0.2,-3.6915 -0.13,-1.0195 -0.31,-1.8593 -0.56,-2.4687 -0.26,-0.6133 -0.56,-1.0977 -0.92,-1.375 -0.38,-0.3086 -0.79,-0.4609 -1.25,-0.4609 h -24.17 v -77.836 c 0,-0.4844 -0.15,-0.9414 -0.48,-1.3242 -0.33,-0.41016 -0.87,-0.73828 -1.61,-0.96875 -0.74,-0.25391 -1.75,-0.45703 -3.03,-0.60937 -1.24,-0.15235 -2.82,-0.23047 -4.73,-0.23047 -1.89,0 -3.47,0.07812 -4.74,0.23047 -1.25,0.15234 -2.27,0.35546 -3.01,0.60937 -0.76,0.23047 -1.3,0.55859 -1.6,0.96875 -0.33,0.3828 -0.48,0.8398 -0.48,1.3242 v 77.836 h -24.2 c -0.48,0 -0.92,0.1523 -1.25,0.4609 -0.36,0.2773 -0.66,0.7617 -0.92,1.375 -0.22,0.6094 -0.43,1.4492 -0.56,2.4687 -0.1,1.0196 -0.18,2.2422 -0.18,3.6915 0,1.4804 0.08,2.7539 0.18,3.7967 0.13,1.047 0.34,1.883 0.56,2.496 0.26,0.637 0.56,1.071 0.92,1.348 0.33,0.281 0.77,0.41 1.25,0.41 h 68.05 c 0.46,0 0.87,-0.129 1.25,-0.41 0.36,-0.277 0.66,-0.711 0.92,-1.348 0.25,-0.613 0.43,-1.449 0.56,-2.496 0.13,-1.0428 0.2,-2.3163 0.2,-3.7967"
         style="fill:#2969ae;fill-opacity:1;fill-rule:nonzero;stroke:none"
         id="path70" />
      <path
         d="m 2707,16.0938 c 0,-1.4532 -0.05,-2.6524 -0.18,-3.6172 -0.13,-0.9688 -0.3,-1.7578 -0.56,-2.3711 -0.26,-0.58597 -0.56,-1.01566 -0.94,-1.29691 -0.36,-0.28125 -0.79,-0.40625 -1.23,-0.40625 h -48.49 c -1.66,0 -3.03,0.48438 -4.15,1.44922 -1.12,0.96874 -1.68,2.54684 -1.68,4.73824 v 84.1758 c 0,2.1914 0.56,3.7694 1.68,4.7384 1.12,0.969 2.49,1.453 4.15,1.453 h 48.19 c 0.46,0 0.84,-0.129 1.2,-0.383 0.35,-0.23 0.63,-0.664 0.89,-1.297 0.25,-0.613 0.43,-1.425 0.56,-2.394 0.13,-0.9689 0.2,-2.1955 0.2,-3.6955 0,-1.375 -0.07,-2.5703 -0.2,-3.5391 -0.13,-0.9687 -0.31,-1.7578 -0.56,-2.3437 -0.26,-0.6133 -0.54,-1.0469 -0.89,-1.3008 -0.36,-0.2773 -0.74,-0.4062 -1.2,-0.4062 h -34.46 v -23.586 h 29.16 c 0.46,0 0.87,-0.1484 1.25,-0.4062 0.36,-0.2813 0.66,-0.7149 0.92,-1.2735 0.25,-0.5859 0.43,-1.3515 0.56,-2.3164 0.12,-0.9687 0.17,-2.1406 0.17,-3.5429 0,-1.4493 -0.05,-2.6485 -0.17,-3.5899 -0.13,-0.9453 -0.31,-1.707 -0.56,-2.2695 -0.26,-0.582 -0.56,-0.9883 -0.92,-1.2188 -0.38,-0.2578 -0.79,-0.3828 -1.25,-0.3828 h -29.16 V 23.7852 h 34.76 c 0.44,0 0.87,-0.1524 1.23,-0.4336 0.38,-0.2578 0.68,-0.6875 0.94,-1.3008 0.26,-0.586 0.43,-1.375 0.56,-2.3438 0.13,-0.9648 0.18,-2.1875 0.18,-3.6132"
         style="fill:#2969ae;fill-opacity:1;fill-rule:nonzero;stroke:none"
         id="path72" />
      <path
         d="m 2821.66,16.168 c 0,-1.4532 -0.05,-2.6719 -0.18,-3.6641 -0.12,-0.9961 -0.3,-1.8086 -0.56,-2.4219 -0.25,-0.61325 -0.56,-1.07028 -0.94,-1.30075 -0.36,-0.25391 -0.77,-0.37891 -1.23,-0.37891 h -56.92 c -2.01,0 -3.54,0.5586 -4.61,1.70316 -1.07,1.1484 -1.6,2.8281 -1.6,5.0195 v 3.2852 c 0,0.9961 0.07,1.8828 0.2,2.7265 0.13,0.8125 0.33,1.6289 0.64,2.4961 0.27,0.8399 0.71,1.7539 1.3,2.75 0.56,0.9922 1.27,2.1875 2.11,3.5899 l 37.47,59.3984 h -37.16 c -0.59,0 -1.1,0.125 -1.53,0.4062 -0.44,0.2774 -0.77,0.711 -1.04,1.2969 -0.29,0.6094 -0.49,1.4024 -0.59,2.3946 -0.13,0.996 -0.21,2.1914 -0.21,3.5664 0,1.5039 0.08,2.75 0.21,3.7698 0.1,1.019 0.3,1.859 0.59,2.472 0.27,0.633 0.6,1.067 1.04,1.297 0.43,0.254 0.94,0.383 1.53,0.383 h 53.36 c 2.03,0 3.53,-0.512 4.5,-1.578 0.97,-1.047 1.46,-2.496 1.46,-4.3829 v -3.668 c 0,-1.3515 -0.05,-2.4961 -0.18,-3.4648 -0.13,-0.9649 -0.36,-1.9063 -0.67,-2.8242 -0.33,-0.9414 -0.76,-1.8868 -1.32,-2.8516 -0.54,-0.9727 -1.25,-2.1172 -2.09,-3.4648 l -36.85,-58.5821 h 40.36 c 0.95,0 1.66,-0.5859 2.17,-1.7812 0.48,-1.1992 0.74,-3.2617 0.74,-6.1914"
         style="fill:#2969ae;fill-opacity:1;fill-rule:nonzero;stroke:none"
         id="path74" />
      <path
         d="m 2918.49,15.2773 c 0,-1.1445 -0.2,-2.164 -0.59,-3.082 -0.4,-0.8906 -0.94,-1.6289 -1.6,-2.21483 -0.69,-0.61328 -1.48,-1.04297 -2.4,-1.32422 -0.91,-0.25391 -1.86,-0.41016 -2.8,-0.41016 h -8.35 c -1.73,0 -3.26,0.17969 -4.51,0.53516 -1.28,0.33203 -2.44,0.96875 -3.52,1.88675 -1.06,0.914 -2.11,2.164 -3.1,3.7422 -0.99,1.5546 -2.12,3.5898 -3.34,6.0898 l -24.04,45.1328 c -1.38,2.6992 -2.8,5.5742 -4.26,8.6836 -1.42,3.1094 -2.72,6.1367 -3.87,9.0664 h -0.15 c 0.2,-3.5664 0.36,-7.1328 0.46,-10.6953 0.08,-3.5664 0.13,-7.2344 0.13,-11.0039 V 11.1484 c 0,-0.4804 -0.13,-0.9414 -0.41,-1.32027 -0.26,-0.41016 -0.74,-0.73829 -1.4,-1.01954 -0.69,-0.28125 -1.58,-0.48437 -2.73,-0.63671 -1.14,-0.15235 -2.62,-0.23047 -4.4,-0.23047 -1.73,0 -3.19,0.07812 -4.34,0.23047 -1.14,0.15234 -2.03,0.35546 -2.69,0.63671 -0.64,0.28125 -1.07,0.60938 -1.33,1.01954 -0.25,0.37887 -0.38,0.83987 -0.38,1.32027 v 86.8047 c 0,2.3169 0.68,4.0739 2.06,5.2459 1.35,1.172 3.03,1.758 5.02,1.758 h 10.55 c 1.88,0 3.46,-0.152 4.76,-0.484 1.29,-0.332 2.44,-0.864 3.46,-1.606 1.02,-0.738 1.99,-1.781 2.88,-3.1053 0.89,-1.2969 1.81,-2.9336 2.75,-4.8633 l 18.82,-35.3046 c 1.1,-2.1407 2.17,-4.25 3.24,-6.3165 1.07,-2.0625 2.11,-4.125 3.11,-6.1914 0.99,-2.0586 1.96,-4.0976 2.9,-6.0859 0.94,-1.9844 1.86,-3.9727 2.75,-5.9609 h 0.08 c -0.16,3.4922 -0.26,7.1093 -0.34,10.9023 -0.07,3.7695 -0.1,7.3867 -0.1,10.8008 v 45.3088 c 0,0.484 0.15,0.945 0.44,1.351 0.3,0.383 0.81,0.739 1.5,1.043 0.68,0.282 1.6,0.512 2.75,0.614 1.14,0.129 2.63,0.203 4.41,0.203 1.7,0 3.1,-0.074 4.25,-0.203 1.14,-0.102 2.04,-0.332 2.64,-0.614 0.65,-0.304 1.08,-0.66 1.31,-1.043 0.25,-0.406 0.38,-0.867 0.38,-1.351 V 15.2773"
         style="fill:#2969ae;fill-opacity:1;fill-rule:nonzero;stroke:none"
         id="path76" />
      <path
         d="m 3022.12,15.7109 c 0.58,-1.7812 0.97,-3.207 1.12,-4.2539 0.13,-1.0429 -0.05,-1.83591 -0.61,-2.34372 -0.54,-0.53515 -1.5,-0.83984 -2.91,-0.96875 -1.4,-0.125 -3.31,-0.20312 -5.75,-0.20312 -2.52,0 -4.51,0.05078 -5.93,0.1289 -1.41,0.07422 -2.5,0.22657 -3.24,0.4336 -0.74,0.22656 -1.27,0.53515 -1.58,0.9414 -0.28,0.40625 -0.54,0.91799 -0.74,1.57809 l -6.5,19.3829 h -36.27 l -6.1,-18.875 c -0.21,-0.6836 -0.47,-1.2696 -0.79,-1.75786 -0.31,-0.45703 -0.84,-0.83594 -1.56,-1.11719 -0.71,-0.25391 -1.76,-0.46094 -3.05,-0.5625 -1.33,-0.10156 -3.06,-0.15234 -5.2,-0.15234 -2.3,0 -4.08,0.07812 -5.38,0.23047 -1.29,0.15234 -2.18,0.50781 -2.67,1.09375 -0.51,0.5625 -0.69,1.37497 -0.53,2.42187 0.15,1.043 0.53,2.4453 1.12,4.1758 l 29.77,85.6567 c 0.31,0.839 0.64,1.527 1.04,2.062 0.41,0.508 1.05,0.914 1.91,1.195 0.87,0.258 2.07,0.434 3.62,0.512 1.53,0.074 3.59,0.129 6.11,0.129 2.93,0 5.28,-0.055 7.03,-0.129 1.74,-0.078 3.09,-0.254 4.05,-0.512 0.97,-0.281 1.69,-0.687 2.09,-1.246 0.44,-0.535 0.79,-1.277 1.1,-2.242 z m -44.34,70.8086 h -0.08 l -13.65,-41.0351 h 27.38 l -13.65,41.0351"
         style="fill:#2969ae;fill-opacity:1;fill-rule:nonzero;stroke:none"
         id="path78" />
      <path
         d="m 3118.72,15.2773 c 0,-1.1445 -0.2,-2.164 -0.59,-3.082 -0.4,-0.8906 -0.94,-1.6289 -1.6,-2.21483 -0.69,-0.61328 -1.48,-1.04297 -2.4,-1.32422 -0.91,-0.25391 -1.86,-0.41016 -2.8,-0.41016 h -8.35 c -1.73,0 -3.26,0.17969 -4.51,0.53516 -1.27,0.33203 -2.44,0.96875 -3.52,1.88675 -1.06,0.914 -2.11,2.164 -3.1,3.7422 -0.99,1.5546 -2.12,3.5898 -3.34,6.0898 l -24.04,45.1328 c -1.38,2.6992 -2.8,5.5742 -4.26,8.6836 -1.42,3.1094 -2.72,6.1367 -3.87,9.0664 h -0.15 c 0.2,-3.5664 0.36,-7.1328 0.46,-10.6953 0.08,-3.5664 0.13,-7.2344 0.13,-11.0039 V 11.1484 c 0,-0.4804 -0.13,-0.9414 -0.41,-1.32027 -0.26,-0.41016 -0.74,-0.73829 -1.4,-1.01954 -0.69,-0.28125 -1.58,-0.48437 -2.73,-0.63671 -1.14,-0.15235 -2.62,-0.23047 -4.4,-0.23047 -1.73,0 -3.19,0.07812 -4.33,0.23047 -1.15,0.15234 -2.04,0.35546 -2.7,0.63671 -0.64,0.28125 -1.07,0.60938 -1.33,1.01954 -0.25,0.37887 -0.38,0.83987 -0.38,1.32027 v 86.8047 c 0,2.3169 0.69,4.0739 2.06,5.2459 1.36,1.172 3.04,1.758 5.02,1.758 h 10.55 c 1.88,0 3.46,-0.152 4.76,-0.484 1.3,-0.332 2.44,-0.864 3.46,-1.606 1.02,-0.738 1.99,-1.781 2.88,-3.1053 0.89,-1.2969 1.81,-2.9336 2.75,-4.8633 l 18.83,-35.3046 c 1.09,-2.1407 2.16,-4.25 3.23,-6.3165 1.07,-2.0625 2.11,-4.125 3.11,-6.1914 0.99,-2.0586 1.96,-4.0976 2.9,-6.0859 0.94,-1.9844 1.86,-3.9727 2.75,-5.9609 h 0.08 c -0.16,3.4922 -0.26,7.1093 -0.34,10.9023 -0.07,3.7695 -0.1,7.3867 -0.1,10.8008 v 45.3088 c 0,0.484 0.16,0.945 0.44,1.351 0.3,0.383 0.81,0.739 1.5,1.043 0.68,0.282 1.61,0.512 2.75,0.614 1.15,0.129 2.63,0.203 4.41,0.203 1.7,0 3.1,-0.074 4.25,-0.203 1.15,-0.102 2.04,-0.332 2.65,-0.614 0.64,-0.304 1.07,-0.66 1.3,-1.043 0.25,-0.406 0.38,-0.867 0.38,-1.351 V 15.2773"
         style="fill:#2969ae;fill-opacity:1;fill-rule:nonzero;stroke:none"
         id="path80" />
      <path
         d="m 3230.09,57.7852 c 0,-7.9961 -0.99,-15.1524 -2.98,-21.4688 -1.98,-6.3203 -4.94,-11.6914 -8.89,-16.0976 -3.92,-4.379 -8.79,-7.7422 -14.56,-10.0625 -5.81,-2.31646 -12.51,-3.46099 -20.13,-3.46099 -7.51,0 -14.05,0.96485 -19.66,2.92578 -5.6,1.96091 -10.26,4.96871 -13.98,8.99221 -3.75,4.0508 -6.55,9.1719 -8.41,15.3828 -1.85,6.2148 -2.8,13.5781 -2.8,22.082 0,7.8203 1,14.8516 3.01,21.0899 1.99,6.2383 4.94,11.539 8.86,15.9218 3.92,4.379 8.79,7.7382 14.59,10.0862 5.79,2.34 12.54,3.488 20.18,3.488 7.33,0 13.77,-0.969 19.38,-2.906 5.58,-1.934 10.26,-4.9142 14.01,-8.9377 3.77,-4.0508 6.59,-9.1211 8.5,-15.2812 1.94,-6.1407 2.88,-13.375 2.88,-21.7539 z m -20.58,-1.043 c 0,5.0937 -0.4,9.7031 -1.19,13.8555 -0.8,4.1523 -2.17,7.7148 -4.08,10.6718 -1.91,2.9532 -4.46,5.25 -7.64,6.8516 -3.18,1.6328 -7.16,2.4453 -11.94,2.4453 -4.82,0 -8.87,-0.918 -12.11,-2.7266 -3.2,-1.832 -5.83,-4.2539 -7.82,-7.2851 -1.98,-3.0274 -3.38,-6.5703 -4.22,-10.6211 -0.82,-4.0703 -1.22,-8.3516 -1.22,-12.8867 0,-5.2696 0.4,-10.0117 1.19,-14.211 0.79,-4.2031 2.15,-7.7968 4.02,-10.7734 1.89,-2.9805 4.44,-5.2734 7.62,-6.8281 3.18,-1.5781 7.18,-2.3672 12.02,-2.3672 4.82,0 8.84,0.918 12.08,2.6992 3.23,1.7852 5.85,4.2305 7.84,7.3125 1.99,3.0781 3.39,6.6719 4.21,10.7695 0.84,4.1016 1.24,8.4844 1.24,13.0938"
         style="fill:#2969ae;fill-opacity:1;fill-rule:nonzero;stroke:none"
         id="path82" />
      <path
         d="m 3307.31,37.3594 c 0,-5.0703 -0.94,-9.5235 -2.83,-13.3711 -1.88,-3.8203 -4.45,-7.0313 -7.69,-9.5781 -3.23,-2.5704 -7,-4.48051 -11.33,-5.78129 -4.33,-1.29688 -8.97,-1.9336 -13.89,-1.9336 -3.33,0 -6.44,0.25391 -9.29,0.81641 -2.85,0.53125 -5.37,1.19531 -7.57,1.95703 -2.19,0.79295 -4.02,1.57815 -5.5,2.44535 -1.45,0.8398 -2.52,1.582 -3.16,2.2422 -0.66,0.6367 -1.11,1.582 -1.37,2.7773 -0.28,1.2227 -0.41,2.9766 -0.41,5.2695 0,1.5547 0.05,2.8282 0.13,3.875 0.1,1.043 0.28,1.9102 0.49,2.543 0.22,0.6406 0.53,1.0977 0.91,1.375 0.36,0.2812 0.79,0.4102 1.3,0.4102 0.69,0 1.68,-0.4102 2.95,-1.2227 1.25,-0.8164 2.88,-1.7305 4.9,-2.7266 1.98,-0.9922 4.35,-1.9062 7.1,-2.7226 2.78,-0.8164 5.96,-1.2227 9.6,-1.2227 2.4,0 4.54,0.2813 6.42,0.8399 1.89,0.5859 3.49,1.3984 4.82,2.4453 1.29,1.0429 2.31,2.3203 3,3.8711 0.72,1.5547 1.04,3.2617 1.04,5.1445 0,2.1914 -0.58,4.0742 -1.78,5.6289 -1.2,1.5781 -2.75,2.9805 -4.66,4.1758 -1.91,1.2226 -4.1,2.3711 -6.52,3.4414 -2.45,1.0664 -4.97,2.2148 -7.54,3.3867 -2.59,1.1953 -5.12,2.5703 -7.54,4.0742 -2.44,1.5274 -4.61,3.336 -6.54,5.4493 -1.91,2.1132 -3.47,4.6132 -4.66,7.4882 -1.2,2.9024 -1.79,6.3438 -1.79,10.3946 0,4.6093 0.87,8.6836 2.58,12.1992 1.7,3.4883 4.02,6.418 6.95,8.7109 2.9,2.3163 6.34,4.0473 10.29,5.1953 3.94,1.145 8.15,1.707 12.58,1.707 2.27,0 4.56,-0.152 6.85,-0.512 2.3,-0.355 4.44,-0.812 6.42,-1.425 1.99,-0.586 3.75,-1.274 5.3,-2.012 1.55,-0.738 2.57,-1.375 3.06,-1.86 0.5,-0.511 0.84,-0.9136 1.01,-1.273 0.18,-0.3554 0.31,-0.8164 0.44,-1.375 0.12,-0.5859 0.23,-1.3007 0.28,-2.164 0.02,-0.8672 0.05,-1.961 0.05,-3.2617 0,-1.4258 -0.03,-2.6485 -0.1,-3.6407 -0.08,-0.9922 -0.21,-1.8086 -0.39,-2.4726 -0.15,-0.6367 -0.4,-1.1211 -0.73,-1.4024 -0.33,-0.3047 -0.77,-0.4531 -1.31,-0.4531 -0.55,0 -1.42,0.3516 -2.62,1.043 -1.19,0.6836 -2.65,1.4492 -4.4,2.2656 -1.74,0.8398 -3.75,1.5781 -6.04,2.2422 -2.29,0.6875 -4.79,1.0195 -7.54,1.0195 -2.14,0 -4,-0.2578 -5.58,-0.793 -1.6,-0.5078 -2.93,-1.246 -4,-2.164 -1.07,-0.918 -1.86,-2.0117 -2.39,-3.3125 -0.51,-1.2969 -0.79,-2.6719 -0.79,-4.0977 0,-2.1406 0.59,-4 1.76,-5.5781 1.17,-1.5547 2.75,-2.9531 4.71,-4.1797 1.96,-1.2226 4.18,-2.3672 6.67,-3.4101 2.5,-1.0704 5.02,-2.2149 7.62,-3.4141 2.57,-1.1953 5.12,-2.5469 7.62,-4.0469 2.46,-1.5312 4.68,-3.3398 6.62,-5.4531 1.93,-2.1133 3.51,-4.6094 4.71,-7.4648 1.2,-2.875 1.78,-6.2383 1.78,-10.1094"
         style="fill:#2969ae;fill-opacity:1;fill-rule:nonzero;stroke:none"
         id="path84" />
      <path
         d="m 3388.35,96.9063 c 0,-1.4493 -0.08,-2.6719 -0.2,-3.6915 -0.13,-1.0195 -0.31,-1.8593 -0.56,-2.4687 -0.26,-0.6133 -0.56,-1.0977 -0.92,-1.375 -0.38,-0.3086 -0.79,-0.4609 -1.25,-0.4609 h -24.17 v -77.836 c 0,-0.4844 -0.15,-0.9414 -0.48,-1.3242 -0.33,-0.41016 -0.87,-0.73828 -1.61,-0.96875 -0.74,-0.25391 -1.76,-0.45703 -3.03,-0.60937 -1.25,-0.15235 -2.83,-0.23047 -4.74,-0.23047 -1.88,0 -3.46,0.07812 -4.73,0.23047 -1.25,0.15234 -2.27,0.35546 -3.01,0.60937 -0.76,0.23047 -1.3,0.55859 -1.6,0.96875 -0.34,0.3828 -0.49,0.8398 -0.49,1.3242 v 77.836 h -24.19 c -0.49,0 -0.92,0.1523 -1.25,0.4609 -0.36,0.2773 -0.66,0.7617 -0.92,1.375 -0.23,0.6094 -0.43,1.4492 -0.56,2.4687 -0.1,1.0196 -0.18,2.2422 -0.18,3.6915 0,1.4804 0.08,2.7539 0.18,3.7967 0.13,1.047 0.33,1.883 0.56,2.496 0.26,0.637 0.56,1.071 0.92,1.348 0.33,0.281 0.76,0.41 1.25,0.41 h 68.05 c 0.46,0 0.87,-0.129 1.25,-0.41 0.36,-0.277 0.66,-0.711 0.92,-1.348 0.25,-0.613 0.43,-1.449 0.56,-2.496 0.12,-1.0428 0.2,-2.3163 0.2,-3.7967"
         style="fill:#2969ae;fill-opacity:1;fill-rule:nonzero;stroke:none"
         id="path86" />
      <path
         d="m 3422.96,11.0742 c 0,-0.4844 -0.18,-0.9414 -0.51,-1.3242 -0.31,-0.41016 -0.84,-0.73828 -1.61,-0.96875 -0.73,-0.25391 -1.73,-0.45703 -2.98,-0.60937 -1.24,-0.15235 -2.82,-0.23047 -4.76,-0.23047 -1.89,0 -3.46,0.07812 -4.74,0.23047 -1.27,0.15234 -2.29,0.35546 -3.02,0.60937 -0.75,0.23047 -1.28,0.55859 -1.61,0.96875 -0.33,0.3828 -0.48,0.8398 -0.48,1.3242 v 91.2068 c 0,0.485 0.15,0.946 0.48,1.328 0.33,0.403 0.86,0.735 1.66,0.965 0.76,0.254 1.75,0.461 3,0.614 1.25,0.152 2.82,0.23 4.71,0.23 1.94,0 3.52,-0.078 4.76,-0.23 1.25,-0.153 2.25,-0.36 2.98,-0.614 0.77,-0.23 1.3,-0.562 1.61,-0.965 0.33,-0.382 0.51,-0.843 0.51,-1.328 V 11.0742"
         style="fill:#2969ae;fill-opacity:1;fill-rule:nonzero;stroke:none"
         id="path88" />
      <path
         d="m 3530.08,11.8398 c -0.26,-0.8437 -0.59,-1.5273 -0.97,-2.06636 -0.41,-0.50781 -1.04,-0.91406 -1.93,-1.19531 -0.92,-0.25391 -2.12,-0.4336 -3.67,-0.50782 -1.56,-0.07812 -3.57,-0.1289 -6.04,-0.1289 -1.99,0 -3.69,0.02343 -5.12,0.05078 -1.42,0.02734 -2.62,0.07812 -3.62,0.17969 -0.99,0.10156 -1.8,0.2539 -2.41,0.45703 -0.64,0.20703 -1.15,0.43359 -1.58,0.73828 -0.41,0.30469 -0.74,0.66411 -0.97,1.09761 -0.23,0.4063 -0.44,0.9415 -0.64,1.6016 l -28.73,85.5781 c -0.58,1.7852 -0.94,3.2105 -1.07,4.2575 -0.13,1.043 0.13,1.832 0.74,2.34 0.61,0.535 1.68,0.844 3.18,0.969 1.48,0.129 3.57,0.207 6.27,0.207 2.29,0 4.08,-0.055 5.37,-0.156 1.28,-0.102 2.27,-0.278 2.99,-0.535 0.68,-0.254 1.16,-0.614 1.44,-1.118 0.29,-0.488 0.54,-1.125 0.8,-1.859 l 23.51,-74.4766 h 0.05 l 23.07,74.0936 c 0.21,0.863 0.43,1.528 0.74,2.063 0.3,0.508 0.81,0.941 1.53,1.222 0.71,0.305 1.75,0.508 3.11,0.61 1.32,0.101 3.18,0.156 5.5,0.156 2.29,0 4.07,-0.078 5.34,-0.23 1.28,-0.153 2.14,-0.512 2.63,-1.098 0.45,-0.559 0.61,-1.375 0.43,-2.418 -0.17,-1.047 -0.56,-2.4454 -1.15,-4.1798 l -28.8,-85.6524"
         style="fill:#2969ae;fill-opacity:1;fill-rule:nonzero;stroke:none"
         id="path90" />
      <path
         d="m 3667.64,37.3594 c 0,-5.0703 -0.95,-9.5235 -2.84,-13.3711 -1.88,-3.8203 -4.45,-7.0313 -7.68,-9.5781 -3.24,-2.5704 -7.01,-4.48051 -11.34,-5.78129 -4.33,-1.29688 -8.96,-1.9336 -13.88,-1.9336 -3.34,0 -6.44,0.25391 -9.29,0.81641 -2.86,0.53125 -5.38,1.19531 -7.57,1.95703 -2.19,0.79295 -4.02,1.57815 -5.5,2.44535 -1.45,0.8398 -2.52,1.582 -3.16,2.2422 -0.66,0.6367 -1.12,1.582 -1.38,2.7773 -0.28,1.2227 -0.4,2.9766 -0.4,5.2695 0,1.5547 0.05,2.8282 0.12,3.875 0.1,1.043 0.28,1.9102 0.49,2.543 0.23,0.6406 0.53,1.0977 0.92,1.375 0.35,0.2812 0.78,0.4102 1.3,0.4102 0.68,0 1.68,-0.4102 2.95,-1.2227 1.25,-0.8164 2.87,-1.7305 4.89,-2.7266 1.98,-0.9922 4.36,-1.9062 7.11,-2.7226 2.77,-0.8164 5.95,-1.2227 9.6,-1.2227 2.39,0 4.53,0.2813 6.41,0.8399 1.89,0.5859 3.5,1.3984 4.82,2.4453 1.3,1.0429 2.31,2.3203 3,3.8711 0.72,1.5547 1.05,3.2617 1.05,5.1445 0,2.1914 -0.59,4.0742 -1.79,5.6289 -1.19,1.5781 -2.75,2.9805 -4.66,4.1758 -1.91,1.2226 -4.1,2.3711 -6.52,3.4414 -2.44,1.0664 -4.96,2.2148 -7.54,3.3867 -2.59,1.1953 -5.11,2.5703 -7.53,4.0742 -2.45,1.5274 -4.61,3.336 -6.55,5.4493 -1.91,2.1132 -3.46,4.6132 -4.66,7.4882 -1.2,2.9024 -1.78,6.3438 -1.78,10.3946 0,4.6093 0.86,8.6836 2.57,12.1992 1.71,3.4883 4.02,6.418 6.95,8.7109 2.91,2.3163 6.34,4.0473 10.29,5.1953 3.95,1.145 8.15,1.707 12.58,1.707 2.27,0 4.56,-0.152 6.85,-0.512 2.3,-0.355 4.44,-0.812 6.42,-1.425 1.99,-0.586 3.75,-1.274 5.3,-2.012 1.56,-0.738 2.58,-1.375 3.06,-1.86 0.51,-0.511 0.84,-0.9136 1.02,-1.273 0.18,-0.3554 0.3,-0.8164 0.43,-1.375 0.13,-0.5859 0.23,-1.3007 0.28,-2.164 0.03,-0.8672 0.05,-1.961 0.05,-3.2617 0,-1.4258 -0.02,-2.6485 -0.1,-3.6407 -0.08,-0.9922 -0.2,-1.8086 -0.38,-2.4726 -0.16,-0.6367 -0.41,-1.1211 -0.74,-1.4024 -0.33,-0.3047 -0.77,-0.4531 -1.3,-0.4531 -0.56,0 -1.43,0.3516 -2.62,1.043 -1.2,0.6836 -2.66,1.4492 -4.41,2.2656 -1.73,0.8398 -3.74,1.5781 -6.03,2.2422 -2.3,0.6875 -4.79,1.0195 -7.55,1.0195 -2.13,0 -3.99,-0.2578 -5.57,-0.793 -1.61,-0.5078 -2.93,-1.246 -4,-2.164 -1.07,-0.918 -1.86,-2.0117 -2.4,-3.3125 -0.5,-1.2969 -0.79,-2.6719 -0.79,-4.0977 0,-2.1406 0.59,-4 1.76,-5.5781 1.17,-1.5547 2.75,-2.9531 4.71,-4.1797 1.96,-1.2226 4.18,-2.3672 6.68,-3.4101 2.5,-1.0704 5.01,-2.2149 7.61,-3.4141 2.57,-1.1953 5.12,-2.5469 7.62,-4.0469 2.47,-1.5312 4.68,-3.3398 6.62,-5.4531 1.93,-2.1133 3.51,-4.6094 4.71,-7.4648 1.2,-2.875 1.79,-6.2383 1.79,-10.1094"
         style="fill:#2969ae;fill-opacity:1;fill-rule:nonzero;stroke:none"
         id="path92" />
      <path
         d="m 3739.17,16.6016 c 0,-1.4766 -0.05,-2.75 -0.17,-3.7696 -0.13,-1.0195 -0.31,-1.8593 -0.57,-2.5195 -0.25,-0.69141 -0.55,-1.17187 -0.94,-1.45312 -0.35,-0.30469 -0.81,-0.45704 -1.29,-0.45704 h -44.25 c -1.65,0 -3.03,0.48438 -4.15,1.44922 -1.12,0.96874 -1.68,2.54684 -1.68,4.73824 v 87.6912 c 0,0.485 0.15,0.946 0.49,1.328 0.32,0.403 0.86,0.735 1.6,0.965 0.74,0.254 1.76,0.461 3.03,0.614 1.27,0.152 2.85,0.23 4.74,0.23 1.93,0 3.51,-0.078 4.76,-0.23 1.25,-0.153 2.24,-0.36 2.98,-0.614 0.76,-0.23 1.3,-0.562 1.6,-0.965 0.33,-0.382 0.51,-0.843 0.51,-1.328 V 24.6016 h 30.37 c 0.48,0 0.94,-0.1524 1.29,-0.4102 0.39,-0.2812 0.69,-0.7383 0.94,-1.3476 0.26,-0.6407 0.44,-1.4532 0.57,-2.4727 0.12,-1.0195 0.17,-2.2695 0.17,-3.7695"
         style="fill:#2969ae;fill-opacity:1;fill-rule:nonzero;stroke:none"
         id="path94" />
      <path
         d="m 3841.07,57.7852 c 0,-7.9961 -0.99,-15.1524 -2.98,-21.4688 -1.98,-6.3203 -4.94,-11.6914 -8.89,-16.0976 -3.92,-4.379 -8.79,-7.7422 -14.57,-10.0625 -5.8,-2.31646 -12.5,-3.46099 -20.12,-3.46099 -7.51,0 -14.06,0.96485 -19.66,2.92578 -5.6,1.96091 -10.26,4.96871 -13.98,8.99221 -3.75,4.0508 -6.55,9.1719 -8.41,15.3828 -1.86,6.2148 -2.8,13.5781 -2.8,22.082 0,7.8203 0.99,14.8516 3.01,21.0899 1.98,6.2383 4.94,11.539 8.86,15.9218 3.92,4.379 8.79,7.7382 14.59,10.0862 5.79,2.34 12.54,3.488 20.17,3.488 7.34,0 13.78,-0.969 19.39,-2.906 5.58,-1.934 10.26,-4.9142 14.01,-8.9377 3.77,-4.0508 6.59,-9.1211 8.5,-15.2812 1.94,-6.1407 2.88,-13.375 2.88,-21.7539 z m -20.58,-1.043 c 0,5.0937 -0.4,9.7031 -1.2,13.8555 -0.79,4.1523 -2.16,7.7148 -4.07,10.6718 -1.91,2.9532 -4.46,5.25 -7.64,6.8516 -3.19,1.6328 -7.16,2.4453 -11.95,2.4453 -4.81,0 -8.86,-0.918 -12.09,-2.7266 -3.21,-1.832 -5.84,-4.2539 -7.83,-7.2851 -1.98,-3.0274 -3.38,-6.5703 -4.22,-10.6211 -0.82,-4.0703 -1.22,-8.3516 -1.22,-12.8867 0,-5.2696 0.4,-10.0117 1.19,-14.211 0.79,-4.2031 2.14,-7.7968 4.02,-10.7734 1.89,-2.9805 4.44,-5.2734 7.62,-6.8281 3.19,-1.5781 7.19,-2.3672 12.03,-2.3672 4.81,0 8.83,0.918 12.07,2.6992 3.23,1.7852 5.85,4.2305 7.84,7.3125 1.99,3.0781 3.39,6.6719 4.2,10.7695 0.85,4.1016 1.25,8.4844 1.25,13.0938"
         style="fill:#2969ae;fill-opacity:1;fill-rule:nonzero;stroke:none"
         id="path96" />
      <path
         d="m 3908.66,11.8398 c -0.25,-0.8437 -0.59,-1.5273 -0.97,-2.06636 -0.4,-0.50781 -1.04,-0.91406 -1.93,-1.19531 -0.92,-0.25391 -2.12,-0.4336 -3.67,-0.50782 -1.55,-0.07812 -3.56,-0.1289 -6.04,-0.1289 -1.98,0 -3.69,0.02343 -5.12,0.05078 -1.42,0.02734 -2.62,0.07812 -3.61,0.17969 -1,0.10156 -1.81,0.2539 -2.42,0.45703 -0.64,0.20703 -1.15,0.43359 -1.58,0.73828 -0.41,0.30469 -0.74,0.66411 -0.97,1.09761 -0.23,0.4063 -0.43,0.9415 -0.64,1.6016 l -28.73,85.5781 c -0.58,1.7852 -0.94,3.2105 -1.07,4.2575 -0.12,1.043 0.13,1.832 0.75,2.34 0.61,0.535 1.68,0.844 3.18,0.969 1.48,0.129 3.57,0.207 6.27,0.207 2.29,0 4.07,-0.055 5.37,-0.156 1.27,-0.102 2.27,-0.278 2.98,-0.535 0.68,-0.254 1.17,-0.614 1.45,-1.118 0.28,-0.488 0.54,-1.125 0.79,-1.859 l 23.51,-74.4766 h 0.05 l 23.08,74.0936 c 0.2,0.863 0.43,1.528 0.73,2.063 0.31,0.508 0.82,0.941 1.53,1.222 0.71,0.305 1.76,0.508 3.11,0.61 1.33,0.101 3.18,0.156 5.5,0.156 2.29,0 4.08,-0.078 5.35,-0.23 1.27,-0.153 2.14,-0.512 2.62,-1.098 0.46,-0.559 0.61,-1.375 0.43,-2.418 -0.17,-1.047 -0.56,-2.4454 -1.14,-4.1798 l -28.81,-85.6524"
         style="fill:#2969ae;fill-opacity:1;fill-rule:nonzero;stroke:none"
         id="path98" />
      <path
         d="m 4010.26,16.0938 c 0,-1.4532 -0.05,-2.6524 -0.18,-3.6172 -0.13,-0.9688 -0.31,-1.7578 -0.56,-2.3711 -0.26,-0.58597 -0.56,-1.01566 -0.95,-1.29691 -0.35,-0.28125 -0.78,-0.40625 -1.22,-0.40625 h -48.49 c -1.66,0 -3.04,0.48438 -4.15,1.44922 -1.12,0.96874 -1.69,2.54684 -1.69,4.73824 v 84.1758 c 0,2.1914 0.57,3.7694 1.69,4.7384 1.11,0.969 2.49,1.453 4.15,1.453 h 48.18 c 0.46,0 0.85,-0.129 1.2,-0.383 0.36,-0.23 0.64,-0.664 0.89,-1.297 0.26,-0.613 0.44,-1.425 0.57,-2.394 0.12,-0.9689 0.2,-2.1955 0.2,-3.6955 0,-1.375 -0.08,-2.5703 -0.2,-3.5391 -0.13,-0.9687 -0.31,-1.7578 -0.57,-2.3437 -0.25,-0.6133 -0.53,-1.0469 -0.89,-1.3008 -0.35,-0.2773 -0.74,-0.4062 -1.2,-0.4062 h -34.46 v -23.586 h 29.17 c 0.46,0 0.86,-0.1484 1.25,-0.4062 0.36,-0.2813 0.66,-0.7149 0.91,-1.2735 0.26,-0.5859 0.44,-1.3515 0.56,-2.3164 0.13,-0.9687 0.18,-2.1406 0.18,-3.5429 0,-1.4493 -0.05,-2.6485 -0.18,-3.5899 -0.12,-0.9453 -0.3,-1.707 -0.56,-2.2695 -0.25,-0.582 -0.55,-0.9883 -0.91,-1.2188 -0.39,-0.2578 -0.79,-0.3828 -1.25,-0.3828 h -29.17 V 23.7852 h 34.77 c 0.44,0 0.87,-0.1524 1.22,-0.4336 0.39,-0.2578 0.69,-0.6875 0.95,-1.3008 0.25,-0.586 0.43,-1.375 0.56,-2.3438 0.13,-0.9648 0.18,-2.1875 0.18,-3.6132"
         style="fill:#2969ae;fill-opacity:1;fill-rule:nonzero;stroke:none"
         id="path100" />
      <path
         d="m 4110.68,15.2773 c 0,-1.1445 -0.2,-2.164 -0.59,-3.082 -0.41,-0.8906 -0.94,-1.6289 -1.6,-2.21483 -0.69,-0.61328 -1.48,-1.04297 -2.4,-1.32422 -0.91,-0.25391 -1.86,-0.41016 -2.8,-0.41016 h -8.35 c -1.73,0 -3.26,0.17969 -4.51,0.53516 -1.27,0.33203 -2.45,0.96875 -3.52,1.88675 -1.07,0.914 -2.11,2.164 -3.1,3.7422 -0.99,1.5546 -2.12,3.5898 -3.34,6.0898 l -24.04,45.1328 c -1.38,2.6992 -2.8,5.5742 -4.25,8.6836 -1.43,3.1094 -2.73,6.1367 -3.88,9.0664 h -0.15 c 0.21,-3.5664 0.36,-7.1328 0.46,-10.6953 0.08,-3.5664 0.13,-7.2344 0.13,-11.0039 V 11.1484 c 0,-0.4804 -0.13,-0.9414 -0.41,-1.32027 -0.26,-0.41016 -0.74,-0.73829 -1.4,-1.01954 -0.69,-0.28125 -1.58,-0.48437 -2.73,-0.63671 -1.15,-0.15235 -2.62,-0.23047 -4.4,-0.23047 -1.74,0 -3.19,0.07812 -4.34,0.23047 -1.14,0.15234 -2.03,0.35546 -2.69,0.63671 -0.64,0.28125 -1.07,0.60938 -1.33,1.01954 -0.25,0.37887 -0.38,0.83987 -0.38,1.32027 v 86.8047 c 0,2.3169 0.69,4.0739 2.07,5.2459 1.34,1.172 3.02,1.758 5.01,1.758 h 10.55 c 1.88,0 3.46,-0.152 4.76,-0.484 1.3,-0.332 2.44,-0.864 3.46,-1.606 1.02,-0.738 1.99,-1.781 2.88,-3.1053 0.89,-1.2969 1.81,-2.9336 2.75,-4.8633 l 18.82,-35.3046 c 1.1,-2.1407 2.17,-4.25 3.24,-6.3165 1.07,-2.0625 2.11,-4.125 3.1,-6.1914 1,-2.0586 1.97,-4.0976 2.91,-6.0859 0.94,-1.9844 1.85,-3.9727 2.75,-5.9609 h 0.08 c -0.16,3.4922 -0.26,7.1093 -0.33,10.9023 -0.08,3.7695 -0.11,7.3867 -0.11,10.8008 v 45.3088 c 0,0.484 0.16,0.945 0.44,1.351 0.3,0.383 0.81,0.739 1.5,1.043 0.69,0.282 1.6,0.512 2.75,0.614 1.14,0.129 2.62,0.203 4.41,0.203 1.7,0 3.1,-0.074 4.25,-0.203 1.14,-0.102 2.04,-0.332 2.65,-0.614 0.63,-0.304 1.07,-0.66 1.3,-1.043 0.25,-0.406 0.38,-0.867 0.38,-1.351 V 15.2773"
         style="fill:#2969ae;fill-opacity:1;fill-rule:nonzero;stroke:none"
         id="path102" />
      <path
         d="m 4154.91,11.0742 c 0,-0.4844 -0.18,-0.9414 -0.51,-1.3242 -0.3,-0.41016 -0.84,-0.73828 -1.6,-0.96875 -0.74,-0.25391 -1.73,-0.45703 -2.98,-0.60937 -1.25,-0.15235 -2.83,-0.23047 -4.77,-0.23047 -1.88,0 -3.46,0.07812 -4.73,0.23047 -1.27,0.15234 -2.3,0.35546 -3.03,0.60937 -0.74,0.23047 -1.28,0.55859 -1.61,0.96875 -0.33,0.3828 -0.48,0.8398 -0.48,1.3242 v 91.2068 c 0,0.485 0.15,0.946 0.48,1.328 0.33,0.403 0.87,0.735 1.66,0.965 0.76,0.254 1.76,0.461 3,0.614 1.25,0.152 2.83,0.23 4.71,0.23 1.94,0 3.52,-0.078 4.77,-0.23 1.25,-0.153 2.24,-0.36 2.98,-0.614 0.76,-0.23 1.3,-0.562 1.6,-0.965 0.33,-0.382 0.51,-0.843 0.51,-1.328 V 11.0742"
         style="fill:#2969ae;fill-opacity:1;fill-rule:nonzero;stroke:none"
         id="path104" />
      <path
         d="m 4209.13,35.2695 c 0,-4.3789 -0.41,-8.3281 -1.22,-11.8437 -0.82,-3.4883 -2.21,-6.4922 -4.18,-8.9375 -1.96,-2.4727 -4.56,-4.3555 -7.74,-5.62892 -3.19,-1.30079 -7.11,-1.96094 -11.77,-1.96094 -1.5,0 -2.98,0.1289 -4.45,0.35547 -1.46,0.20703 -2.81,0.50781 -4.03,0.83984 -1.22,0.35938 -2.27,0.74219 -3.16,1.12109 -0.92,0.40625 -1.5,0.76563 -1.81,1.09766 -0.28,0.3047 -0.53,0.6602 -0.73,0.9922 -0.21,0.3555 -0.39,0.8164 -0.54,1.375 -0.12,0.5859 -0.23,1.3008 -0.28,2.1367 -0.05,0.8438 -0.08,1.9141 -0.08,3.2109 0,1.6797 0.03,3.1094 0.11,4.2813 0.07,1.168 0.2,2.0859 0.38,2.7734 0.17,0.6641 0.41,1.1485 0.74,1.4024 0.33,0.2773 0.74,0.4336 1.22,0.4336 0.46,0 0.99,-0.1797 1.58,-0.4844 0.58,-0.332 1.27,-0.6641 2.01,-1.0195 0.74,-0.3555 1.63,-0.6875 2.62,-1.0196 1,-0.3047 2.17,-0.4843 3.49,-0.4843 1.35,0 2.52,0.207 3.54,0.5625 1.05,0.3789 1.89,1.0195 2.55,1.9609 0.66,0.918 1.17,2.1367 1.53,3.6914 0.36,1.5273 0.53,3.5156 0.53,5.9609 V 102.41 c 0,0.508 0.16,0.942 0.49,1.324 0.3,0.356 0.84,0.688 1.55,0.918 0.74,0.254 1.73,0.434 3.03,0.559 1.3,0.129 2.88,0.207 4.76,0.207 1.91,0 3.47,-0.078 4.72,-0.207 1.24,-0.125 2.24,-0.305 3.03,-0.559 0.76,-0.23 1.3,-0.562 1.63,-0.918 0.33,-0.382 0.48,-0.816 0.48,-1.324 V 35.2695"
         style="fill:#2969ae;fill-opacity:1;fill-rule:nonzero;stroke:none"
         id="path106" />
      <path
         d="m 4253.21,11.0742 c 0,-0.4844 -0.17,-0.9414 -0.5,-1.3242 -0.31,-0.41016 -0.85,-0.73828 -1.61,-0.96875 -0.74,-0.25391 -1.73,-0.45703 -2.98,-0.60937 -1.25,-0.15235 -2.83,-0.23047 -4.76,-0.23047 -1.89,0 -3.47,0.07812 -4.74,0.23047 -1.27,0.15234 -2.29,0.35546 -3.03,0.60937 -0.74,0.23047 -1.27,0.55859 -1.6,0.96875 -0.33,0.3828 -0.49,0.8398 -0.49,1.3242 v 91.2068 c 0,0.485 0.16,0.946 0.49,1.328 0.33,0.403 0.86,0.735 1.65,0.965 0.77,0.254 1.76,0.461 3.01,0.614 1.24,0.152 2.82,0.23 4.71,0.23 1.93,0 3.51,-0.078 4.76,-0.23 1.25,-0.153 2.24,-0.36 2.98,-0.614 0.76,-0.23 1.3,-0.562 1.61,-0.965 0.33,-0.382 0.5,-0.843 0.5,-1.328 V 11.0742"
         style="fill:#2969ae;fill-opacity:1;fill-rule:nonzero;stroke:none"
         id="path108" />
    </g>
  </g>
</svg>
