<?xml version="1.0" standalone="no"?>
<!DOCTYPE svg PUBLIC "-//W3C//DTD SVG 20010904//EN"
 "http://www.w3.org/TR/2001/REC-SVG-20010904/DTD/svg10.dtd">
<svg version="1.0" xmlns="http://www.w3.org/2000/svg"
 width="425.000000pt" height="425.000000pt" viewBox="0 0 425.000000 425.000000"
 preserveAspectRatio="xMidYMid meet">
<metadata>
Created by potrace 1.14, written by Peter Selinger 2001-2017
</metadata>
<g transform="translate(0.000000,425.000000) scale(0.100000,-0.100000)"
fill="#000000" stroke="none">
<path d="M1909 4224 c-241 -43 -454 -156 -630 -334 -132 -134 -226 -289 -284
-467 -29 -87 -55 -233 -55 -305 l0 -48 280 0 280 0 0 33 c0 56 29 159 67 236
50 105 169 224 274 274 108 52 194 70 309 64 265 -14 483 -187 565 -447 14
-43 19 -104 23 -287 2 -147 1 -233 -6 -233 -5 0 -42 14 -83 31 -278 114 -632
131 -934 44 -111 -32 -287 -115 -389 -184 -309 -209 -517 -520 -598 -894 -31
-146 -31 -418 0 -564 62 -286 188 -519 392 -723 195 -196 429 -324 703 -385
114 -26 401 -31 529 -10 451 74 851 375 1047 790 185 390 181 857 -11 1239
-22 44 -51 97 -64 118 l-24 38 0 453 c0 252 -5 490 -10 537 -64 523 -463 942
-975 1025 -111 18 -304 18 -406 -1z m411 -2084 c466 -133 684 -676 438 -1095
-52 -88 -173 -210 -258 -259 -209 -122 -467 -138 -683 -42 -196 87 -362 282
-418 493 -28 103 -29 260 -4 358 74 289 292 498 585 561 88 18 244 11 340 -16z"/>
<path d="M1998 1805 c-110 -35 -217 -140 -255 -247 -26 -76 -23 -205 6 -281
31 -80 114 -168 198 -209 171 -84 384 -27 496 132 53 76 70 143 65 250 -3 73
-9 98 -36 153 -38 77 -107 143 -190 183 -71 34 -208 43 -284 19z"/>
</g>
</svg>
